<svg width="138" height="124" viewBox="0 0 138 124" fill="none" xmlns="http://www.w3.org/2000/svg">
<g filter="url(#filter0_d)">
<path d="M56.7485 16C39.9644 16 25.7832 28.5656 23.7189 45.26L16 108.357H81.2515C98.0356 108.357 112.217 95.7917 114.281 79.0974L122 16H56.7485Z" fill="white"/>
</g>
<path d="M93.2937 62.2139C94.4205 62.2139 95.3412 63.1285 95.2647 64.2527C94.892 69.7325 93.0223 75.0198 89.8413 79.5292C86.2673 84.5958 81.213 88.4323 75.3719 90.5123C69.5309 92.5923 63.1893 92.8138 57.2174 91.1466C51.2454 89.4793 45.9357 86.0049 42.0168 81.2001C38.0979 76.3953 35.7618 70.4956 35.329 64.3104C34.8963 58.1252 36.3882 51.9576 39.5999 46.6539C42.8116 41.3503 47.5858 37.1704 53.2674 34.6878C58.3242 32.4782 63.8794 31.7095 69.3223 32.446C70.4389 32.5971 71.1498 33.6828 70.9233 34.7866C70.6968 35.8904 69.6186 36.5931 68.5004 36.454C63.8849 35.8796 59.1861 36.5547 54.9012 38.4269C49.9914 40.5723 45.8657 44.1844 43.0903 48.7676C40.3148 53.3508 39.0257 58.6806 39.3996 64.0256C39.7736 69.3706 41.7923 74.4689 45.1789 78.621C48.5655 82.7731 53.1539 85.7756 58.3146 87.2164C63.4754 88.6571 68.9555 88.4657 74.0031 86.6682C79.0507 84.8708 83.4184 81.5554 86.5069 77.1771C89.2023 73.3561 90.8082 68.8888 91.1733 64.2521C91.2618 63.1288 92.1669 62.2139 93.2937 62.2139Z" fill="url(#paint0_linear)"/>
<path d="M52.2944 56.3439C51.392 55.4415 49.9289 55.4415 49.0266 56.3439C48.1242 57.2463 48.1242 58.7093 49.0266 59.6117L52.2944 56.3439ZM63.3693 70.6867L61.7354 72.3206C62.1687 72.7539 62.7565 72.9974 63.3693 72.9974C63.9821 72.9974 64.5699 72.7539 65.0032 72.3206L63.3693 70.6867ZM104.285 33.0387C105.187 32.1363 105.187 30.6733 104.285 29.7709C103.383 28.8685 101.92 28.8685 101.017 29.7709L104.285 33.0387ZM49.0266 59.6117L61.7354 72.3206L65.0032 69.0528L52.2944 56.3439L49.0266 59.6117ZM65.0032 72.3206L104.285 33.0387L101.017 29.7709L61.7354 69.0528L65.0032 72.3206Z" fill="#616161"/>
<defs>
<filter id="filter0_d" x="0.595342" y="0.595342" width="136.809" height="123.167" filterUnits="userSpaceOnUse" color-interpolation-filters="sRGB">
<feFlood flood-opacity="0" result="BackgroundImageFix"/>
<feColorMatrix in="SourceAlpha" type="matrix" values="0 0 0 0 0 0 0 0 0 0 0 0 0 0 0 0 0 0 127 0"/>
<feOffset/>
<feGaussianBlur stdDeviation="7.70233"/>
<feColorMatrix type="matrix" values="0 0 0 0 0 0 0 0 0 0 0 0 0 0 0 0 0 0 0.29 0"/>
<feBlend mode="normal" in2="BackgroundImageFix" result="effect1_dropShadow"/>
<feBlend mode="normal" in="SourceGraphic" in2="effect1_dropShadow" result="shape"/>
</filter>
<linearGradient id="paint0_linear" x1="35.2558" y1="58.1408" x2="95.334" y2="58.1408" gradientUnits="userSpaceOnUse">
<stop stop-color="#A72844"/>
<stop offset="0.570175" stop-color="#9E3B51"/>
<stop offset="0.864583" stop-color="#8F2E42"/>
<stop offset="1" stop-color="#781E2E"/>
</linearGradient>
</defs>
</svg>
