<svg width="178" height="160" viewBox="0 0 178 160" fill="none" xmlns="http://www.w3.org/2000/svg">
<g filter="url(#filter0_d)">
<path d="M72.9042 20C51.1132 20 32.7017 36.3141 30.0215 57.9884L20 139.908H104.717C126.507 139.908 144.919 123.594 147.599 101.92L157.621 20H72.9042Z" fill="white"/>
</g>
<path d="M114.715 92.8231C115.128 91.5841 115.644 90.4484 116.367 89.3127C116.677 88.6932 116.986 88.177 117.399 87.6608L118.432 85.9056C118.742 85.2861 119.051 84.6666 119.361 84.0471C119.671 83.4277 119.981 82.8082 120.187 82.0855C121.22 79.5043 122.046 76.8199 122.458 74.0322C123.284 68.5602 122.871 62.6751 120.703 57.5128C119.568 54.9316 118.122 52.4537 116.16 50.3888C114.199 48.3238 111.927 46.5687 109.346 45.3297C106.868 43.9875 104.081 43.1615 101.396 42.6453C98.6086 42.1291 95.8209 41.9226 93.0332 42.0258C90.2456 42.1291 87.4579 42.542 84.7735 43.368C82.0891 44.194 79.5079 45.4329 77.2365 47.0849C72.6937 50.079 68.9768 54.5186 66.4989 59.5777C65.2599 62.0556 64.3307 64.74 63.9177 67.631C63.8145 68.3537 63.7112 69.0764 63.7112 69.7991C63.7112 70.2121 63.7112 70.5219 63.7112 70.9348L63.7112 71.4511C63.7112 71.5543 63.7112 71.7608 63.7112 71.8641C63.7112 72.3803 63.608 72.9998 63.4015 73.4128C63.2982 73.6193 63.195 73.929 63.0917 74.1355L62.5755 74.9615L58.5489 81.9822L56.484 85.4926C55.9677 86.3186 55.8645 87.4543 56.1742 88.3835C56.484 89.3127 57.2067 90.1387 58.1359 90.5517C58.2392 90.6549 58.3424 90.6549 58.4457 90.6549C58.5489 90.6549 58.6521 90.7582 58.7554 90.7582L59.2716 90.8614L60.3041 91.0679L62.2658 91.5841L63.2982 91.7906C63.608 91.8939 64.021 91.9971 64.2275 91.9971C64.7437 92.1004 65.1567 92.4101 65.3632 92.7199C65.8794 93.3393 66.0859 94.4751 65.9826 95.714C65.8794 96.953 65.6729 98.2952 65.5697 99.7406C65.4664 101.083 65.3632 102.632 65.8794 104.283C65.9826 104.696 66.1891 105.109 66.4989 105.419C66.6021 105.626 66.8086 105.729 66.9119 105.935C67.1184 106.142 67.2216 106.245 67.4281 106.452C68.1508 106.968 68.9768 107.278 69.6995 107.381C71.145 107.691 72.5904 107.794 73.9326 107.897C75.2748 108 76.617 108.104 77.856 108.31C80.2307 108.723 82.3988 109.549 83.6378 111.304C84.2573 112.13 84.6703 113.163 84.98 114.298C85.2898 115.434 85.2898 116.57 85.2898 117.809C85.2898 118.222 85.5995 118.635 86.0125 118.635L87.6644 118.841L121.22 118.841C121.22 118.118 121.22 117.499 121.22 116.776C121.22 116.054 121.013 115.331 120.91 114.608C120.6 113.163 119.981 111.82 119.361 110.582C118.122 108.104 116.47 105.832 115.438 103.561C114.302 101.289 113.683 98.8114 113.992 96.3335C113.992 95.1978 114.302 93.9588 114.715 92.8231Z" fill="#535455"/>
<path d="M83.6598 60.8046C83.4438 60.5871 83.0926 60.5857 82.875 60.8017L80.8647 62.797C80.6472 63.0129 80.6459 63.3642 80.8618 63.5818C81.0015 63.7225 81.1978 63.7727 81.378 63.7322C81.4763 63.7101 81.5698 63.661 81.6467 63.5847L83.6569 61.5894C83.8745 61.3735 83.8758 61.0221 83.6598 60.8046Z" fill="white"/>
<path d="M80.5185 63.9237C80.3028 63.706 79.9516 63.7042 79.7337 63.9199L79.7243 63.9292C79.5066 64.1449 79.5049 64.4962 79.7206 64.714C79.8602 64.855 80.0568 64.9054 80.2371 64.8649C80.3353 64.8428 80.4287 64.7938 80.5054 64.7178L80.5148 64.7085C80.7325 64.4928 80.7342 64.1414 80.5185 63.9237Z" fill="white"/>
<path d="M98.5799 46.1837C98.377 45.9917 98.0629 45.9805 97.8469 46.1576L83.6279 57.8096C83.4673 57.9411 83.3936 58.1513 83.4368 58.3543C83.4799 58.5574 83.6328 58.7193 83.833 58.7741L87.3677 59.7424L81.181 65.8834C81.0403 66.023 80.9848 66.2269 81.0352 66.4184C81.0855 66.61 81.2342 66.7602 81.4253 66.8125L85.3528 67.8885L77.1041 78.8823C76.933 79.1104 76.9625 79.431 77.1724 79.6239C77.3108 79.7511 77.4977 79.7956 77.6701 79.7568C77.7593 79.7367 77.8446 79.6944 77.9172 79.6298L92.3229 66.7963C92.4748 66.661 92.5404 66.4534 92.494 66.2553C92.4476 66.0573 92.2966 65.9004 92.1003 65.8467L88.5103 64.8631L94.9086 58.3657C95.0473 58.2248 95.1006 58.0208 95.0485 57.83C94.9964 57.6393 94.8468 57.4907 94.6558 57.4399L91.5616 56.6176L98.6468 46.9141C98.8116 46.6885 98.783 46.3756 98.5799 46.1837ZM90.1868 56.6184C90.0788 56.7663 90.0507 56.9581 90.1118 57.1308C90.173 57.3035 90.3154 57.4349 90.4924 57.4819L93.4478 58.2673L87.0552 64.7588C86.9171 64.8991 86.8636 65.1022 86.9148 65.2924C86.9659 65.4826 87.1141 65.6314 87.3041 65.6834L90.8217 66.6471L81.3222 75.1099L86.7303 67.902C86.8406 67.755 86.871 67.5629 86.8115 67.3891C86.752 67.2152 86.6103 67.0822 86.4331 67.0336L82.6436 65.9955L88.8303 59.8544C88.9709 59.7148 89.0265 59.5109 88.9761 59.3194C88.9257 59.1278 88.777 58.9776 88.586 58.9253L85.1621 57.9873L95.1834 49.7753L90.1868 56.6184Z" fill="white"/>
<path d="M95.6609 66.3495C95.4567 66.1207 95.1058 66.101 94.8773 66.305L94.8674 66.3138C94.6388 66.518 94.6189 66.8688 94.8231 67.0975C94.9621 67.2532 95.1691 67.3121 95.3593 67.2693C95.4484 67.2493 95.5338 67.2069 95.6067 67.1418L95.6165 67.133C95.8451 66.9289 95.8651 66.5781 95.6609 66.3495Z" fill="white"/>
<path d="M94.4609 67.4191C94.2569 67.1903 93.9061 67.17 93.6773 67.374L91.5625 69.258C91.3337 69.4619 91.3135 69.8127 91.5173 70.0416C91.6563 70.1976 91.8635 70.2566 92.0539 70.2138C92.1428 70.1938 92.228 70.1516 92.3009 70.0867L94.4156 68.2027C94.6445 67.9988 94.6647 67.648 94.4609 67.4191Z" fill="white"/>
<path d="M97.0432 70.6316C96.9282 70.4302 96.6719 70.36 96.4703 70.4749L94.6087 71.5367C94.4072 71.6516 94.337 71.908 94.452 72.1095C94.5263 72.2398 94.6598 72.3152 94.7994 72.3211C94.8756 72.3243 94.9536 72.3068 95.0248 72.2662L96.8864 71.2045C97.0879 71.0896 97.1581 70.8331 97.0432 70.6316Z" fill="white"/>
<path d="M94.1338 72.2916C94.0191 72.0901 93.7629 72.0197 93.5612 72.1343L93.5525 72.1392C93.3509 72.254 93.2805 72.5103 93.3952 72.7119C93.4694 72.8424 93.6031 72.918 93.7428 72.9239C93.8189 72.9271 93.8968 72.9097 93.9678 72.8692L93.9765 72.8643C94.1781 72.7496 94.2485 72.4932 94.1338 72.2916Z" fill="white"/>
<path d="M110.824 62.8884C110.713 62.7082 110.486 62.6381 110.293 62.725L97.6098 68.4371C97.4665 68.5016 97.3713 68.6406 97.3629 68.7975C97.3544 68.9543 97.4342 69.1027 97.5696 69.1822L99.9613 70.5859L94.2317 73.8538C94.1015 73.9281 94.0208 74.0661 94.0199 74.216C94.0189 74.3659 94.098 74.5049 94.2272 74.5808L96.8847 76.1405L88.6928 82.5477C88.5229 82.6806 88.4813 82.9207 88.5966 83.103C88.6727 83.2231 88.8005 83.2925 88.9341 83.2981C89.0032 83.301 89.0739 83.2869 89.1396 83.254L102.192 76.7154C102.33 76.6465 102.419 76.5078 102.424 76.3539C102.429 76.2001 102.349 76.0557 102.217 75.9778L99.7875 74.5521L105.742 71.0654C105.871 70.9898 105.95 70.8512 105.95 70.7016C105.949 70.552 105.869 70.4139 105.739 70.3392L103.641 69.129L110.729 63.4353C110.893 63.3029 110.934 63.0686 110.824 62.8884ZM102.636 68.8587C102.528 68.9455 102.47 69.0801 102.481 69.2183C102.491 69.3566 102.569 69.4806 102.69 69.5499L104.694 70.7058L98.745 74.1892C98.6164 74.2645 98.5373 74.4024 98.5373 74.5514C98.5372 74.7005 98.6161 74.8384 98.7447 74.9138L101.125 76.3107L92.5176 80.6224L97.8885 76.4216C97.998 76.336 98.058 76.2017 98.0488 76.0629C98.0396 75.9242 97.9623 75.7991 97.8423 75.7287L95.2782 74.2238L101.008 70.9558C101.138 70.8815 101.219 70.7435 101.22 70.5936C101.221 70.4437 101.142 70.3047 101.012 70.2288L98.6957 68.8692L107.635 64.8434L102.636 68.8587Z" fill="white"/>
<path d="M104.719 77.0464C104.615 76.8391 104.362 76.7555 104.155 76.8596L104.146 76.8641C103.939 76.9682 103.855 77.2206 103.96 77.4279C104.03 77.569 104.17 77.6528 104.317 77.659C104.386 77.6619 104.457 77.6478 104.523 77.6146L104.532 77.6101C104.739 77.506 104.823 77.2536 104.719 77.0464Z" fill="white"/>
<path d="M103.632 77.5916C103.528 77.3843 103.275 77.3004 103.068 77.4043L101.152 78.3642C100.944 78.4681 100.861 78.7204 100.964 78.9278C101.035 79.0691 101.175 79.1531 101.323 79.1593C101.391 79.1622 101.462 79.1482 101.528 79.1151L103.444 78.1552C103.652 78.0513 103.735 77.799 103.632 77.5916Z" fill="white"/>
<path d="M98.8749 84.8635C98.8515 84.7051 98.7042 84.5957 98.5458 84.6191L97.0822 84.8353C96.9238 84.8587 96.8144 85.006 96.8378 85.1644C96.8529 85.2669 96.9199 85.3488 97.0082 85.3876C97.0564 85.4088 97.111 85.4171 97.1669 85.4088L98.6305 85.1926C98.7889 85.1692 98.8983 85.0219 98.8749 84.8635Z" fill="white"/>
<path d="M96.5875 85.2019C96.5642 85.0435 96.4171 84.934 96.2586 84.9572L96.2518 84.9582C96.0934 84.9814 95.9838 85.1286 96.0071 85.287C96.0221 85.3896 96.0891 85.4717 96.1776 85.5105C96.2257 85.5317 96.2801 85.54 96.336 85.5318L96.3428 85.5308C96.5012 85.5075 96.6107 85.3603 96.5875 85.2019Z" fill="white"/>
<path d="M109.679 83.3377C109.653 83.1941 109.525 83.0921 109.379 83.0997L99.7894 83.5941C99.6811 83.5997 99.585 83.6652 99.5403 83.764C99.4955 83.8628 99.5096 83.9782 99.5768 84.0633L100.763 85.5657L96.2589 86.2313C96.1565 86.2464 96.07 86.3149 96.0318 86.4111C95.9936 86.5073 96.0096 86.6165 96.0737 86.6977L97.392 88.367L90.5169 90.4345C90.3743 90.4774 90.2874 90.6214 90.3159 90.7676C90.3346 90.8639 90.3995 90.9405 90.484 90.9777C90.5277 90.9969 90.5767 91.0055 90.6273 91.0008L100.662 90.0673C100.767 90.0575 100.859 89.9905 100.901 89.8928C100.943 89.7952 100.928 89.6824 100.862 89.599L99.6572 88.0731L104.361 87.3231C104.463 87.3069 104.549 87.2376 104.586 87.1412C104.623 87.0449 104.606 86.936 104.542 86.8555L103.495 85.551L109.481 83.6656C109.62 83.6218 109.705 83.4814 109.679 83.3377ZM102.917 85.1254C102.825 85.1541 102.754 85.2261 102.726 85.3176C102.699 85.4092 102.718 85.5086 102.778 85.5832L103.777 86.8291L99.0776 87.5784C98.9761 87.5946 98.8906 87.6634 98.8532 87.7593C98.8158 87.8551 98.832 87.9636 98.8958 88.0443L100.076 89.5395L93.4596 90.155L97.9671 88.7995C98.059 88.7719 98.1313 88.7005 98.1602 88.609C98.189 88.5174 98.1706 88.4176 98.1111 88.3423L96.8392 86.7316L101.344 86.0659C101.446 86.0508 101.533 85.9823 101.571 85.8861C101.609 85.7899 101.593 85.6807 101.529 85.5995L100.38 84.1442L107.138 83.7958L102.917 85.1254Z" fill="white"/>
<path d="M102.204 90.9136C102.189 90.7541 102.047 90.6371 101.888 90.6521L101.881 90.6528C101.722 90.6678 101.605 90.8091 101.62 90.9686C101.63 91.0771 101.699 91.166 101.792 91.2069C101.836 91.2261 101.885 91.2348 101.935 91.23L101.942 91.2293C102.102 91.2143 102.219 91.073 102.204 90.9136Z" fill="white"/>
<path d="M101.368 90.9917C101.353 90.8323 101.212 90.715 101.052 90.7299L99.5791 90.867C99.4197 90.8818 99.3025 91.0231 99.3173 91.1825C99.3274 91.2911 99.3963 91.3802 99.4896 91.4212C99.5332 91.4403 99.5821 91.449 99.6328 91.4442L101.106 91.3072C101.265 91.2923 101.382 91.1511 101.368 90.9917Z" fill="white"/>
<defs>
<filter id="filter0_d" x="0" y="0" width="177.621" height="159.908" filterUnits="userSpaceOnUse" color-interpolation-filters="sRGB">
<feFlood flood-opacity="0" result="BackgroundImageFix"/>
<feColorMatrix in="SourceAlpha" type="matrix" values="0 0 0 0 0 0 0 0 0 0 0 0 0 0 0 0 0 0 127 0"/>
<feOffset/>
<feGaussianBlur stdDeviation="10"/>
<feColorMatrix type="matrix" values="0 0 0 0 0 0 0 0 0 0 0 0 0 0 0 0 0 0 0.29 0"/>
<feBlend mode="normal" in2="BackgroundImageFix" result="effect1_dropShadow"/>
<feBlend mode="normal" in="SourceGraphic" in2="effect1_dropShadow" result="shape"/>
</filter>
</defs>
</svg>
