<svg width="170" height="79" viewBox="0 0 170 79" fill="none" xmlns="http://www.w3.org/2000/svg">
<path d="M97.2461 1.62908V2.25817H35.9301C22.9883 2.25817 11.9313 11.8203 10.0466 24.6536L2.50777 76.7418H63.1956C76.1373 76.7418 87.1943 67.1797 89.079 54.3464L96.7435 1.50327L97.2461 1.62908ZM97.2461 1.62908V2.25817V1.62908ZM97.2461 1.62908L97.8744 1.7549L90.2098 54.598C88.1995 68.0605 76.7656 78 63.07 78H1L8.79016 24.5278C10.8005 10.9395 22.3601 1 35.9301 1H98L97.8744 1.7549L97.2461 1.62908Z" stroke="white" stroke-opacity="0.5"/>
<path d="M168.573 1.35948V1.71895H133.806C126.468 1.71895 120.198 7.18301 119.13 14.5163L114.855 44.281H149.266C156.604 44.281 162.873 38.817 163.942 31.4837L168.288 1.28758L168.573 1.35948ZM168.573 1.35948V1.71895V1.35948ZM168.573 1.35948L168.929 1.43137L164.583 31.6275C163.443 39.3203 156.96 45 149.194 45H114L118.417 14.4444C119.557 6.67974 126.111 1 133.806 1H169L168.929 1.43137L168.573 1.35948Z" stroke="white" stroke-opacity="0.2"/>
</svg>
