<svg width="1110" height="58" viewBox="0 0 1110 58" fill="none" xmlns="http://www.w3.org/2000/svg">
<path d="M16.8863 49.0936H18.6167V0.796503H16.0509L9.30834 40.839L2.53593 0.796503H0V49.0936H1.70056V6.22722L8.98016 49.0936H9.63652L16.8863 6.22722V49.0936Z" fill="#898989"/>
<path d="M38.0401 49.0936H39.9495L31.8047 0.796503H29.6864L21.5416 49.0936H23.451L25.4499 37.2185H36.0411L38.0401 49.0936ZM30.7306 4.85144L35.5041 33.4532H25.9869L30.7306 4.85144Z" fill="#898989"/>
<path d="M45.8902 49.0936H47.6206V4.5618H54.1245V0.796503H39.3863V4.5618H45.8902V49.0936Z" fill="#898989"/>
<path d="M57.6585 49.0936H70.2785V45.3283H59.3591V26.2122H70.0696V22.4469H59.3591V4.5618H70.2785V0.796503H57.6585V49.0936Z" fill="#898989"/>
<path d="M74.4986 49.0936H76.1992V29.0362H81.9573C85.7462 29.0362 87.954 22.5194 87.954 14.9164C87.954 7.31336 85.7761 0.796503 81.9573 0.796503H74.4986V49.0936ZM86.1639 14.9164C86.1639 20.9988 84.4037 25.2709 81.7783 25.2709H76.1992V4.5618H81.7783C84.4037 4.5618 86.1639 8.83396 86.1639 14.9164Z" fill="#898989"/>
<path d="M91.5427 0.796503V49.0936H93.2135L105.744 6.95131V49.0936H107.444V0.796503H105.714L93.2433 42.3596V0.796503H91.5427Z" fill="#898989"/>
<path d="M126.873 49.0936H128.783L120.638 0.796503H118.52L110.375 49.0936H112.284L114.283 37.2185H124.874L126.873 49.0936ZM119.564 4.85144L124.337 33.4532H114.82L119.564 4.85144Z" fill="#898989"/>
<path d="M130.288 45.9076V49.9625C133.6 49.9625 136.374 46.7041 137.657 13.8302L138.045 4.5618H146.041V49.0936H147.771V0.796503H136.583L136.076 13.5406C134.912 41.7803 132.824 45.9076 130.288 45.9076Z" fill="#898989"/>
<path d="M174.739 49.0936H176.469V0.796503H160.418V49.0936H162.119V4.5618H174.739V49.0936Z" fill="#898989"/>
<path d="M181.396 49.0936H183.096V29.0362H188.854C192.643 29.0362 194.851 22.5194 194.851 14.9164C194.851 7.31336 192.673 0.796503 188.854 0.796503H181.396V49.0936ZM193.061 14.9164C193.061 20.9988 191.301 25.2709 188.675 25.2709H183.096V4.5618H188.675C191.301 4.5618 193.061 8.83396 193.061 14.9164Z" fill="#898989"/>
<path d="M198.44 49.0936H211.06V45.3283H200.14V26.2122H210.851V22.4469H200.14V4.5618H211.06V0.796503H198.44V49.0936Z" fill="#898989"/>
<path d="M213.758 45.3283V58H215.31V49.0936H231.48V58H233.001V45.3283H230.853V0.796503H219.844L219.278 12.1648C218.025 35.4082 216.593 42.2871 215.28 45.3283H213.758ZM220.829 12.5268L221.247 4.5618H229.123V45.3283H217.309C218.442 41.9251 219.665 35.2634 220.829 12.5268Z" fill="#898989"/>
<path d="M250.898 49.0936H252.629V0.796503H250.898V22.3745H238.278V0.796503H236.578V49.0936H238.278V26.1398H250.898V49.0936Z" fill="#898989"/>
<path d="M272.025 49.0936H273.934L265.789 0.796503H263.671L255.526 49.0936H257.436L259.435 37.2185H270.026L272.025 49.0936ZM264.715 4.85144L269.489 33.4532H259.972L264.715 4.85144Z" fill="#898989"/>
<path d="M275.35 41.9251C276.573 46.2697 279.139 49.9625 282.57 49.9625C286.985 49.9625 289.7 44.0974 289.7 36.1323C289.7 28.1673 286.866 24.5468 285.136 24.1124C286.836 23.3883 289.402 20.2022 289.402 12.8165C289.402 4.63421 286.21 0.0724086 282.63 0.0724086C279.587 0.0724086 277.2 3.25843 275.768 7.38577L276.812 9.99251C278.363 6.00999 280.124 3.83771 282.54 3.83771C285.285 3.83771 287.612 7.16854 287.612 13.1785C287.612 19.623 285.225 22.3745 282.51 22.3745H278.99V26.1398H282.51C285.553 26.1398 287.94 28.9638 287.94 35.9151C287.94 42.2871 285.882 46.1973 282.57 46.1973C279.855 46.1973 277.647 43.3009 276.514 39.3908L275.35 41.9251Z" fill="#898989"/>
<path d="M308.294 49.0936H310.025V0.796503H308.294V22.3745H295.675V0.796503H293.974V49.0936H295.675V26.1398H308.294V49.0936Z" fill="#898989"/>
<path d="M329.421 49.0936H331.33L323.186 0.796503H321.067L312.923 49.0936H314.832L316.831 37.2185H327.422L329.421 49.0936ZM322.112 4.85144L326.885 33.4532H317.368L322.112 4.85144Z" fill="#898989"/>
<path d="M333.04 14.0474V0.796503H331.34V14.0474C331.34 25.3433 333.16 29.9051 337.336 29.9051C339.693 29.9051 341.662 28.5293 343.065 27.0087V49.0936H344.765V0.796503H343.065V23.6055C341.662 25.1985 339.664 26.1398 337.665 26.1398C334.383 26.1398 333.04 22.9538 333.04 14.0474Z" fill="#898989"/>
<path d="M349.71 49.0936H362.33V45.3283H351.41V26.2122H362.121V22.4469H351.41V4.5618H362.33V0.796503H349.71V49.0936Z" fill="#898989"/>
<path d="M380.87 49.0936H382.601V0.796503H380.87V22.3745H368.25V0.796503H366.55V49.0936H368.25V26.1398H380.87V49.0936Z" fill="#898989"/>
<path d="M393.726 45.3283V58H395.278V49.0936H411.448V58H412.969V45.3283H410.821V0.796503H399.812L399.246 12.1648C397.993 35.4082 396.561 42.2871 395.248 45.3283H393.726ZM400.797 12.5268L401.215 4.5618H409.091V45.3283H397.277C398.41 41.9251 399.633 35.2634 400.797 12.5268Z" fill="#898989"/>
<path d="M415.201 45.9076V49.9625C418.513 49.9625 421.287 46.7041 422.57 13.8302L422.958 4.5618H430.954V49.0936H432.684V0.796503H421.496L420.989 13.5406C419.825 41.7803 417.737 45.9076 415.201 45.9076Z" fill="#898989"/>
<path d="M436.656 49.0936H438.714L444.293 29.1086H448.649V49.0936H450.38V0.796503H442.951C439.52 0.796503 436.894 6.0824 436.894 14.9164C436.894 23.6779 439.43 28.5293 442.414 28.819L436.656 49.0936ZM448.649 25.3433H443.1C440.445 25.3433 438.684 20.9988 438.684 14.9164C438.684 8.83396 440.445 4.5618 443.1 4.5618H448.649V25.3433Z" fill="#898989"/>
<path d="M472.324 49.9625C475.546 49.9625 477.873 46.6317 479.633 41.3458L478.201 39.1735C476.948 43.3733 474.77 46.1973 472.324 46.1973C467.7 46.1973 464.09 37.4357 464.09 24.9813C464.09 12.382 467.7 3.76529 472.324 3.76529C474.77 3.76529 476.948 6.58926 478.201 10.789L479.633 8.54432C477.933 3.40325 475.546 0 472.324 0C466.745 0 462.3 10.1373 462.3 24.9813C462.3 39.8252 466.745 49.9625 472.324 49.9625Z" fill="#898989"/>
<path d="M482.345 24.9813C482.345 39.1011 486.163 49.9625 492.011 49.9625C497.829 49.9625 501.677 39.1011 501.677 24.9813C501.677 10.8614 497.829 0 492.011 0C486.163 0 482.345 10.8614 482.345 24.9813ZM499.887 24.9813C499.887 37.1461 496.784 46.1973 492.011 46.1973C487.178 46.1973 484.135 37.1461 484.135 24.9813C484.135 12.6717 487.178 3.76529 492.011 3.76529C496.784 3.76529 499.887 12.6717 499.887 24.9813Z" fill="#898989"/>
<path d="M510.072 49.0936H511.802V4.5618H518.306V0.796503H503.568V4.5618H510.072V49.0936Z" fill="#898989"/>
<path d="M521.84 49.0936H523.541V29.0362H529.299C533.088 29.0362 535.295 22.5194 535.295 14.9164C535.295 7.31336 533.118 0.796503 529.299 0.796503H521.84V49.0936ZM533.505 14.9164C533.505 20.9988 531.745 25.2709 529.12 25.2709H523.541V4.5618H529.12C531.745 4.5618 533.505 8.83396 533.505 14.9164Z" fill="#898989"/>
<path d="M552.429 0.796503L546.313 32.0774L538.854 0.796503H536.856L545.418 35.9151L544.762 38.9563C543.598 44.3146 542.882 46.1973 541.39 46.1973C540.794 46.1973 540.257 45.8352 539.839 45.3283L539.362 48.9488C539.899 49.6005 540.704 49.9625 541.42 49.9625C543.837 49.9625 545.06 46.7041 546.253 40.9114L554.398 0.796503H552.429Z" fill="#898989"/>
<path d="M552.396 45.3283V58H553.948V49.0936H570.118V58H571.64V45.3283H569.492V0.796503H558.483L557.916 12.1648C556.663 35.4082 555.231 42.2871 553.918 45.3283H552.396ZM559.467 12.5268L559.885 4.5618H567.761V45.3283H555.947C557.08 41.9251 558.304 35.2634 559.467 12.5268Z" fill="#898989"/>
<path d="M589.536 49.0936H591.267V0.796503H589.536V22.3745H576.916V0.796503H575.216V49.0936H576.916V26.1398H589.536V49.0936Z" fill="#898989"/>
<path d="M596.193 0.796503V49.0936H597.864L610.394 6.95131V49.0936H612.095V0.796503H610.365L597.894 42.3596V0.796503H596.193Z" fill="#898989"/>
<path d="M629.167 49.0936H631.345L622.066 23.8227L630.539 0.796503H628.361L618.755 27.226V0.796503H617.054V49.0936H618.755V32.2222L620.962 26.3571L629.167 49.0936Z" fill="#898989"/>
<path d="M632.187 24.9813C632.187 39.1011 636.006 49.9625 641.853 49.9625C647.671 49.9625 651.519 39.1011 651.519 24.9813C651.519 10.8614 647.671 0 641.853 0C636.006 0 632.187 10.8614 632.187 24.9813ZM649.729 24.9813C649.729 37.1461 646.627 46.1973 641.853 46.1973C637.02 46.1973 633.977 37.1461 633.977 24.9813C633.977 12.6717 637.02 3.76529 641.853 3.76529C646.627 3.76529 649.729 12.6717 649.729 24.9813Z" fill="#898989"/>
<path d="M655.716 49.0936H664.07C667.62 49.0936 669.768 44.0974 669.768 36.0599C669.768 30.3396 668.008 24.9813 665.89 24.1848C667.68 23.3159 669.38 19.1885 669.38 13.1061C669.38 5.50312 667.232 0.796503 663.891 0.796503H655.716V49.0936ZM657.417 22.4469V4.5618H663.682C666.248 4.5618 667.59 8.61673 667.59 13.5406C667.59 18.5368 666.248 22.4469 663.682 22.4469H657.417ZM657.417 45.3283V26.2122H663.801C666.576 26.2122 667.978 30.8464 667.978 35.7703C667.978 41.6355 666.427 45.3283 663.801 45.3283H657.417Z" fill="#898989"/>
<path d="M691.042 49.9625C694.264 49.9625 696.591 46.6317 698.351 41.3458L696.919 39.1735C695.666 43.3733 693.488 46.1973 691.042 46.1973C686.417 46.1973 682.807 37.4357 682.807 24.9813C682.807 12.382 686.417 3.76529 691.042 3.76529C693.488 3.76529 695.666 6.58926 696.919 10.789L698.351 8.54432C696.651 3.40325 694.264 0 691.042 0C685.463 0 681.017 10.1373 681.017 24.9813C681.017 39.8252 685.463 49.9625 691.042 49.9625Z" fill="#898989"/>
<path d="M701.808 0.796503V49.0936H703.479L716.009 6.95131V49.0936H717.71V0.796503H715.98L703.509 42.3596V0.796503H701.808Z" fill="#898989"/>
<path d="M731.948 49.9625C735.17 49.9625 737.497 46.6317 739.257 41.3458L737.825 39.1735C736.572 43.3733 734.394 46.1973 731.948 46.1973C727.323 46.1973 723.713 37.4357 723.713 24.9813C723.713 12.382 727.323 3.76529 731.948 3.76529C734.394 3.76529 736.572 6.58926 737.825 10.789L739.257 8.54432C737.556 3.40325 735.17 0 731.948 0C726.368 0 721.923 10.1373 721.923 24.9813C721.923 39.8252 726.368 49.9625 731.948 49.9625Z" fill="#898989"/>
<path d="M747.786 49.0936H749.516V4.5618H756.02V0.796503H741.282V4.5618H747.786V49.0936Z" fill="#898989"/>
<path d="M759.554 49.0936H772.174V45.3283H761.255V26.2122H771.965V22.4469H761.255V4.5618H772.174V0.796503H759.554V49.0936Z" fill="#898989"/>
<path d="M793.281 49.0936H795.011V0.796503H792.445L785.703 40.839L778.93 0.796503H776.394V49.0936H778.095V6.22722L785.374 49.0936H786.031L793.281 6.22722V49.0936Z" fill="#898989"/>
<path d="M801.665 0.796503H799.965V49.0936H807.423C811.242 49.0936 813.42 42.5768 813.42 34.9738C813.42 27.3708 811.212 20.8539 807.423 20.8539H801.665V0.796503ZM815.807 49.0936H817.507V0.796503H815.807V49.0936ZM801.665 24.6192H807.244C809.87 24.6192 811.63 28.8914 811.63 34.9738C811.63 41.0562 809.87 45.3283 807.244 45.3283H801.665V24.6192Z" fill="#898989"/>
<path d="M828.656 41.9251C829.879 46.2697 832.445 49.9625 835.876 49.9625C840.292 49.9625 843.007 44.0974 843.007 36.1323C843.007 28.1673 840.172 24.5468 838.442 24.1124C840.142 23.3883 842.708 20.2022 842.708 12.8165C842.708 4.63421 839.516 0.0724086 835.936 0.0724086C832.893 0.0724086 830.506 3.25843 829.074 7.38577L830.118 9.99251C831.67 6.00999 833.43 3.83771 835.846 3.83771C838.591 3.83771 840.918 7.16854 840.918 13.1785C840.918 19.623 838.531 22.3745 835.817 22.3745H832.296V26.1398H835.817C838.86 26.1398 841.246 28.9638 841.246 35.9151C841.246 42.2871 839.188 46.1973 835.876 46.1973C833.161 46.1973 830.953 43.3009 829.82 39.3908L828.656 41.9251Z" fill="#898989"/>
<path d="M844.535 45.3283V58H846.086V49.0936H862.257V58H863.778V45.3283H861.63V0.796503H850.621L850.054 12.1648C848.801 35.4082 847.369 42.2871 846.056 45.3283H844.535ZM851.606 12.5268L852.023 4.5618H859.9V45.3283H848.085C849.219 41.9251 850.442 35.2634 851.606 12.5268Z" fill="#898989"/>
<path d="M867.354 49.0936H869.055V29.0362H874.813C878.602 29.0362 880.81 22.5194 880.81 14.9164C880.81 7.31336 878.632 0.796503 874.813 0.796503H867.354V49.0936ZM879.02 14.9164C879.02 20.9988 877.259 25.2709 874.634 25.2709H869.055V4.5618H874.634C877.259 4.5618 879.02 8.83396 879.02 14.9164Z" fill="#898989"/>
<path d="M896.508 49.0936H898.417L890.273 0.796503H888.154L880.01 49.0936H881.919L883.918 37.2185H894.509L896.508 49.0936ZM889.199 4.85144L893.972 33.4532H884.455L889.199 4.85144Z" fill="#898989"/>
<path d="M901.355 49.0936H909.709C913.259 49.0936 915.407 44.0974 915.407 36.0599C915.407 30.3396 913.647 24.9813 911.529 24.1848C913.319 23.3159 915.019 19.1885 915.019 13.1061C915.019 5.50312 912.871 0.796503 909.53 0.796503H901.355V49.0936ZM903.056 22.4469V4.5618H909.321C911.887 4.5618 913.229 8.61673 913.229 13.5406C913.229 18.5368 911.887 22.4469 909.321 22.4469H903.056ZM903.056 45.3283V26.2122H909.44C912.215 26.2122 913.617 30.8464 913.617 35.7703C913.617 41.6355 912.066 45.3283 909.44 45.3283H903.056Z" fill="#898989"/>
<path d="M918.935 24.9813C918.935 39.1011 922.754 49.9625 928.602 49.9625C934.419 49.9625 938.268 39.1011 938.268 24.9813C938.268 10.8614 934.419 0 928.602 0C922.754 0 918.935 10.8614 918.935 24.9813ZM936.478 24.9813C936.478 37.1461 933.375 46.1973 928.602 46.1973C923.768 46.1973 920.725 37.1461 920.725 24.9813C920.725 12.6717 923.768 3.76529 928.602 3.76529C933.375 3.76529 936.478 12.6717 936.478 24.9813Z" fill="#898989"/>
<path d="M941.719 24.9813C941.719 39.1011 945.538 49.9625 951.385 49.9625C957.203 49.9625 961.052 39.1011 961.052 24.9813C961.052 10.8614 957.203 0 951.385 0C945.538 0 941.719 10.8614 941.719 24.9813ZM959.262 24.9813C959.262 37.1461 956.159 46.1973 951.385 46.1973C946.552 46.1973 943.509 37.1461 943.509 24.9813C943.509 12.6717 946.552 3.76529 951.385 3.76529C956.159 3.76529 959.262 12.6717 959.262 24.9813Z" fill="#898989"/>
<path d="M978.427 49.0936H980.545L972.55 24.2572L980.098 0.796503H977.95L971.476 21.2884L965.031 0.796503H962.854L970.432 24.3296L962.406 49.0936H964.554L971.476 27.2984L978.427 49.0936Z" fill="#898989"/>
<path d="M983.575 49.0936H985.275V29.0362H991.033C994.822 29.0362 997.03 22.5194 997.03 14.9164C997.03 7.31336 994.852 0.796503 991.033 0.796503H983.575V49.0936ZM995.24 14.9164C995.24 20.9988 993.48 25.2709 990.854 25.2709H985.275V4.5618H990.854C993.48 4.5618 995.24 8.83396 995.24 14.9164Z" fill="#898989"/>
<path d="M1012.73 49.0936H1014.64L1006.49 0.796503H1004.37L996.23 49.0936H998.139L1000.14 37.2185H1010.73L1012.73 49.0936ZM1005.42 4.85144L1010.19 33.4532H1000.68L1005.42 4.85144Z" fill="#898989"/>
<path d="M1031.9 49.0936H1033.63V0.796503H1031.9V22.3745H1019.28V0.796503H1017.58V49.0936H1019.28V26.1398H1031.9V49.0936Z" fill="#898989"/>
<path d="M1038.55 49.0936H1051.17V45.3283H1040.25V26.2122H1050.96V22.4469H1040.25V4.5618H1051.17V0.796503H1038.55V49.0936Z" fill="#898989"/>
<path d="M1069.71 49.0936H1071.44V0.796503H1069.71V22.3745H1057.09V0.796503H1055.39V49.0936H1057.09V26.1398H1069.71V49.0936Z" fill="#898989"/>
<path d="M1076.37 0.796503V49.0936H1078.04L1090.57 6.95131V49.0936H1092.27V0.796503H1090.54L1078.07 42.3596V0.796503H1076.37Z" fill="#898989"/>
<path d="M1096.28 49.0936H1098.33L1103.91 29.1086H1108.27V49.0936H1110V0.796503H1102.57C1099.14 0.796503 1096.51 6.0824 1096.51 14.9164C1096.51 23.6779 1099.05 28.5293 1102.03 28.819L1096.28 49.0936ZM1108.27 25.3433H1102.72C1100.07 25.3433 1098.3 20.9988 1098.3 14.9164C1098.3 8.83396 1100.07 4.5618 1102.72 4.5618H1108.27V25.3433Z" fill="#898989"/>
</svg>
