<svg width="178" height="160" viewBox="0 0 178 160" fill="none" xmlns="http://www.w3.org/2000/svg">
<g filter="url(#filter0_d)">
<path d="M72.9042 20C51.1132 20 32.7017 36.3141 30.0215 57.9884L20 139.908H104.717C126.507 139.908 144.919 123.594 147.599 101.92L157.621 20H72.9042Z" fill="white"/>
</g>
<path d="M106.812 50.8636C101.669 45.7207 93.3074 45.7037 88.1645 50.8636L75.2561 63.772L93.9205 82.4364L106.812 69.511C111.955 64.351 111.955 56.0066 106.812 50.8636ZM93.5799 58.4929L87.7047 64.2829L87.6877 64.2999C87.0065 64.9641 85.9336 64.947 85.2865 64.2659C84.6224 63.5847 84.6394 62.5118 85.3206 61.8647L91.2128 56.0747L91.2298 56.0576C91.911 55.3935 92.9839 55.4105 93.631 56.0917C94.2781 56.7558 94.2611 57.8457 93.5799 58.4929Z" fill="#535455"/>
<path d="M72.8379 66.1732L59.8444 79.1837C54.7185 84.3437 54.7185 92.6711 59.8444 97.831C65.0384 102.957 73.3999 102.957 78.5939 97.831L91.5193 84.8545L72.8379 66.1732Z" fill="#535455"/>
<path d="M119.277 91.8196L100.903 110.212C106.131 114.213 113.504 113.737 118.153 109.088C122.82 104.439 123.296 97.0477 119.277 91.8196Z" fill="#535455"/>
<path d="M108.889 86.7108C101.652 86.7108 95.7767 92.569 95.7767 99.8235C95.7767 102.719 96.7303 105.528 98.4844 107.81L116.859 89.4355C114.577 87.6645 111.784 86.7108 108.889 86.7108Z" fill="#535455"/>
<defs>
<filter id="filter0_d" x="0" y="0" width="177.621" height="159.908" filterUnits="userSpaceOnUse" color-interpolation-filters="sRGB">
<feFlood flood-opacity="0" result="BackgroundImageFix"/>
<feColorMatrix in="SourceAlpha" type="matrix" values="0 0 0 0 0 0 0 0 0 0 0 0 0 0 0 0 0 0 127 0"/>
<feOffset/>
<feGaussianBlur stdDeviation="10"/>
<feColorMatrix type="matrix" values="0 0 0 0 0 0 0 0 0 0 0 0 0 0 0 0 0 0 0.29 0"/>
<feBlend mode="normal" in2="BackgroundImageFix" result="effect1_dropShadow"/>
<feBlend mode="normal" in="SourceGraphic" in2="effect1_dropShadow" result="shape"/>
</filter>
</defs>
</svg>
