<svg width="1530" height="546" viewBox="0 0 1530 546" fill="none" xmlns="http://www.w3.org/2000/svg">
<path d="M1457.25 1.62908V2.25817H1395.93C1382.99 2.25817 1371.93 11.8203 1370.05 24.6536L1362.51 76.7418H1423.2C1436.14 76.7418 1447.19 67.1797 1449.08 54.3464L1456.74 1.50327L1457.25 1.62908ZM1457.25 1.62908V2.25817V1.62908ZM1457.25 1.62908L1457.87 1.7549L1450.21 54.598C1448.2 68.0605 1436.77 78 1423.07 78H1361L1368.79 24.5278C1370.8 10.9395 1382.36 1 1395.93 1H1458L1457.87 1.7549L1457.25 1.62908Z" stroke="white" stroke-opacity="0.6"/>
<path d="M1528.57 1.35948V1.71895H1493.81C1486.47 1.71895 1480.2 7.18301 1479.13 14.5163L1474.85 44.281H1509.27C1516.6 44.281 1522.87 38.817 1523.94 31.4837L1528.29 1.28758L1528.57 1.35948ZM1528.57 1.35948V1.71895V1.35948ZM1528.57 1.35948L1528.93 1.43137L1524.58 31.6275C1523.44 39.3203 1516.96 45 1509.19 45H1474L1478.42 14.4444C1479.56 6.67974 1486.11 1 1493.81 1H1529L1528.93 1.43137L1528.57 1.35948Z" stroke="white" stroke-opacity="0.3"/>
<path d="M97.2461 468.629V469.258H35.9301C22.9883 469.258 11.9313 478.82 10.0466 491.654L2.50777 543.742H63.1956C76.1373 543.742 87.1943 534.18 89.079 521.346L96.7435 468.503L97.2461 468.629ZM97.2461 468.629V469.258V468.629ZM97.2461 468.629L97.8744 468.755L90.2098 521.598C88.1995 535.06 76.7656 545 63.07 545H1L8.79016 491.528C10.8005 477.94 22.3601 468 35.9301 468H98L97.8744 468.755L97.2461 468.629Z" stroke="white" stroke-opacity="0.5"/>
<path d="M168.573 468.359V468.719H133.806C126.468 468.719 120.198 474.183 119.13 481.516L114.855 511.281H149.266C156.604 511.281 162.873 505.817 163.942 498.484L168.288 468.288L168.573 468.359ZM168.573 468.359V468.719V468.359ZM168.573 468.359L168.929 468.431L164.583 498.627C163.443 506.32 156.96 512 149.194 512H114L118.417 481.444C119.557 473.68 126.111 468 133.806 468H169L168.929 468.431L168.573 468.359Z" stroke="white" stroke-opacity="0.2"/>
</svg>
