<svg width="178" height="160" viewBox="0 0 178 160" fill="none" xmlns="http://www.w3.org/2000/svg">
<g filter="url(#filter0_d)">
<path d="M72.9042 20C51.1132 20 32.7017 36.3141 30.0215 57.9884L20 139.908H104.717C126.507 139.908 144.919 123.594 147.599 101.92L157.621 20H72.9042Z" fill="white"/>
</g>
<path d="M73.0552 61.1628C72.277 61.1628 71.6462 61.7936 71.6462 62.5718V65.5852C71.6462 66.3634 72.277 66.9942 73.0552 66.9942C73.8335 66.9942 74.4643 66.3634 74.4643 65.5852V62.5718C74.4643 61.7936 73.8335 61.1628 73.0552 61.1628Z" fill="#535455" stroke="#535455" stroke-width="0.5"/>
<path d="M73.0552 69.2756C72.277 69.2756 71.6462 69.9064 71.6462 70.6846V73.698C71.6462 74.4762 72.277 75.107 73.0552 75.107C73.8335 75.107 74.4643 74.4762 74.4643 73.698V70.6846C74.4643 69.9064 73.8335 69.2756 73.0552 69.2756Z" fill="#535455" stroke="#535455" stroke-width="0.5"/>
<path d="M78.6183 66.7258H75.6049C74.8267 66.7258 74.1959 67.3566 74.1959 68.1349C74.1959 68.9131 74.8267 69.5439 75.6049 69.5439H78.6183C79.3965 69.5439 80.0273 68.9131 80.0273 68.1349C80.0273 67.3566 79.3965 66.7258 78.6183 66.7258Z" fill="#535455" stroke="#535455" stroke-width="0.5"/>
<path d="M70.5056 66.7258H67.4923C66.714 66.7258 66.0832 67.3566 66.0832 68.1349C66.0832 68.9131 66.714 69.5439 67.4923 69.5439H70.5056C71.2838 69.5439 71.9146 68.9131 71.9146 68.1349C71.9146 67.3566 71.2837 66.7258 70.5056 66.7258Z" fill="#535455" stroke="#535455" stroke-width="0.5"/>
<path d="M58.802 106.034V106.034C58.8018 105.256 58.171 104.625 57.3929 104.625C56.6147 104.625 55.9839 105.256 55.9839 106.034V109.048C55.9839 109.826 56.6147 110.457 57.3929 110.457C58.1711 110.457 58.802 109.826 58.802 109.048V106.034Z" fill="#535455" stroke="#535455" stroke-width="0.5"/>
<path d="M58.802 114.147V114.147C58.8018 113.369 58.171 112.738 57.3929 112.738C56.6147 112.738 55.9839 113.369 55.9839 114.147V117.161C55.9839 117.939 56.6147 118.57 57.3929 118.57C58.1711 118.57 58.802 117.939 58.802 117.161V114.147Z" fill="#535455" stroke="#535455" stroke-width="0.5"/>
<path d="M62.9559 110.189H59.9426C59.1643 110.189 58.5335 110.819 58.5335 111.598C58.5335 112.376 59.1643 113.007 59.9426 113.007H62.9559C63.7341 113.007 64.365 112.376 64.365 111.598C64.365 110.819 63.734 110.189 62.9559 110.189Z" fill="#535455" stroke="#535455" stroke-width="0.5"/>
<path d="M54.8432 110.189H51.8298C51.0516 110.189 50.4208 110.819 50.4208 111.598C50.4208 112.376 51.0516 113.007 51.8298 113.007H54.8432C55.6214 113.007 56.2522 112.376 56.2522 111.598C56.2522 110.819 55.6214 110.189 54.8432 110.189Z" fill="#535455" stroke="#535455" stroke-width="0.5"/>
<path d="M83.5134 95.1909L83.2684 95.2406L83.5134 95.1909C83.2757 94.0188 82.2715 93.1977 81.0755 93.1977C79.8795 93.1977 78.8753 94.0188 78.6377 95.1909L78.1429 97.6313L78.1429 97.6313C77.7669 99.4859 76.3262 100.927 74.4716 101.303L74.4716 101.303L72.0312 101.797C70.8591 102.035 70.0379 103.039 70.0379 104.235C70.0379 105.431 70.859 106.435 72.0312 106.673L74.4716 107.168L74.5212 106.923L74.4716 107.168C76.3262 107.544 77.7669 108.984 78.1429 110.839L78.3864 110.79L78.1429 110.839L78.6377 113.279C78.8753 114.452 79.8795 115.273 81.0755 115.273C82.2715 115.273 83.2757 114.452 83.5134 113.279L83.2684 113.23L83.5134 113.279L84.0082 110.839L83.7632 110.789L84.0082 110.839C84.3842 108.984 85.8249 107.544 87.6795 107.168L87.6298 106.923L87.6795 107.168L90.12 106.673C91.2922 106.435 92.1133 105.431 92.1133 104.235C92.1133 103.039 91.2921 102.035 90.12 101.797L87.6795 101.303C85.8249 100.927 84.3842 99.4859 84.0082 97.6313L83.7632 97.681L84.0082 97.6313L83.5134 95.1909ZM87.1195 104.406L87.1194 104.406C84.1533 105.008 81.8476 107.313 81.2461 110.279C81.2461 110.279 81.2461 110.279 81.2461 110.28L81.0753 111.122L80.9045 110.28C80.303 107.313 77.9973 105.008 75.0312 104.406C75.0312 104.406 75.0312 104.406 75.0311 104.406L74.1889 104.235L75.0311 104.065L74.9815 103.82L75.0311 104.065C77.9973 103.463 80.303 101.157 80.9045 98.1912C80.9045 98.1912 80.9045 98.1912 80.9045 98.1912L81.0754 97.349L81.2461 98.1912L81.2461 98.1912C81.8476 101.157 84.1533 103.463 87.1194 104.065L87.9617 104.235L87.1195 104.406Z" fill="#535455" stroke="#535455" stroke-width="0.5"/>
<path d="M70.757 85.6146L70.7073 85.8596L70.757 85.6146C68.394 85.1356 66.5581 83.2996 66.079 80.9364L65.4799 77.9811L65.4798 77.9811C65.2204 76.7018 64.1247 75.8057 62.8191 75.8057C61.5136 75.8057 60.4177 76.7016 60.1582 77.9811L60.1582 77.9811L59.5591 80.9364L59.5591 80.9365C59.0801 83.2994 57.2441 85.1355 54.8811 85.6146C54.8811 85.6146 54.8811 85.6146 54.8811 85.6146L51.9256 86.2137L51.9753 86.4588L51.9256 86.2137C50.6459 86.4732 49.75 87.5691 49.75 88.8748C49.75 90.1803 50.6459 91.2762 51.9255 91.5357L51.9255 91.5357L54.8809 92.1348L54.9306 91.8898L54.8809 92.1348C57.2439 92.6138 59.0798 94.4498 59.5589 96.8128L60.1581 99.7681L60.1581 99.7682C60.4175 101.048 61.5133 101.944 62.819 101.944C64.1245 101.944 65.2202 101.048 65.4797 99.7682L65.4797 99.7681L66.0789 96.8128C66.558 94.4498 68.3939 92.614 70.7569 92.1348L70.7072 91.8898L70.7569 92.1348L73.7123 91.5355L73.6626 91.2905L73.7123 91.5355C74.9917 91.2761 75.8878 90.1803 75.8878 88.8746C75.8878 87.569 74.9917 86.4731 73.7123 86.2137C73.7123 86.2137 73.7123 86.2137 73.7123 86.2137L70.757 85.6146ZM62.8189 98.7095L62.3209 96.2529L62.0758 96.3026L62.3208 96.2529C61.6163 92.7783 58.9157 90.0775 55.4408 89.3729L55.4408 89.3729L52.9838 88.8748L55.4408 88.3767L55.4408 88.3767C58.9155 87.6721 61.6163 84.9713 62.3208 81.4966L62.3209 81.4966L62.8189 79.0401L63.3169 81.4966L63.3169 81.4966C64.0215 84.9713 66.7221 87.6722 70.1968 88.3767L72.6538 88.8748L70.197 89.3729C66.7223 90.0773 64.0215 92.7781 63.3169 96.2529L62.8189 98.7095Z" fill="#535455" stroke="#535455" stroke-width="0.5"/>
<path d="M125.439 58.6125L125.439 58.6124C125.521 57.8386 126.214 57.2764 126.987 57.3576C127.761 57.4386 128.323 58.1314 128.242 58.9053C127.752 63.5922 125.648 68.008 122.316 71.3401L107.514 86.1418C105.767 87.8895 102.924 87.8895 101.176 86.1418L101.176 86.1418C100.767 85.7327 100.446 85.2579 100.224 84.7408L98.7685 86.1965C97.8946 87.0705 96.7464 87.5072 95.5994 87.5072C94.4524 87.5072 93.3041 87.0703 92.4303 86.1965L92.4302 86.1964C92.0213 85.7873 91.7006 85.3124 91.4786 84.7953L91.0348 85.2392C90.1885 86.0854 89.0623 86.5518 87.8657 86.5518C86.669 86.5518 85.5426 86.0852 84.6965 85.2392C83.8503 84.3929 83.3838 83.2666 83.3838 82.07C83.3838 80.97 83.7781 79.9294 84.499 79.1114C83.9855 78.8932 83.5048 78.5751 83.0872 78.1575C81.3395 76.4099 81.3395 73.5669 83.0872 71.8192L99.7022 55.2039L94.5788 55.1957C91.9744 55.1917 89.8595 53.07 89.8635 50.4655V50.4654C89.8678 47.8641 91.9859 45.7501 94.5865 45.7501H94.5865H94.5865H94.5865H94.5865H94.5865H94.5865H94.5865H94.5865H94.5865H94.5865H94.5865H94.5866H94.5866H94.5866H94.5866H94.5866H94.5866H94.5866H94.5866H94.5866H94.5866H94.5866H94.5867H94.5867H94.5867H94.5867H94.5867H94.5867H94.5867H94.5867H94.5867H94.5867H94.5867H94.5867H94.5868H94.5868H94.5868H94.5868H94.5868H94.5868H94.5868H94.5868H94.5868H94.5868H94.5868H94.5869H94.5869H94.5869H94.5869H94.5869H94.5869H94.5869H94.5869H94.5869H94.5869H94.5869H94.5869H94.587H94.587H94.587H94.587H94.587H94.587H94.587H94.587H94.587H94.587H94.587H94.587H94.5871H94.5871H94.5871H94.5871H94.5871H94.5871H94.5871H94.5871H94.5871H94.5871H94.5871H94.5871H94.5872H94.5872H94.5872H94.5872H94.5872H94.5872H94.5872H94.5872H94.5872H94.5872H94.5872H94.5872H94.5872H94.5873H94.5873H94.5873H94.5873H94.5873H94.5873H94.5873H94.5873H94.5873H94.5873H94.5873H94.5873H94.5874H94.5874H94.5874H94.5874H94.5874H94.5874H94.5874H94.5874H94.5874H94.5874H94.5874H94.5874H94.5875H94.5875H94.5875H94.5875H94.5875H94.5875H94.5875H94.5875H94.5875H94.5875H94.5875H94.5875H94.5875H94.5876H94.5876H94.5876H94.5876H94.5876H94.5876H94.5876H94.5876H94.5876H94.5876H94.5876H94.5876H94.5876H94.5877H94.5877H94.5877H94.5877H94.5877H94.5877H94.5877H94.5877H94.5877H94.5877H94.5877H94.5877H94.5877H94.5878H94.5878H94.5878H94.5878H94.5878H94.5878H94.5878H94.5878H94.5878H94.5878H94.5878H94.5878H94.5879H94.5879H94.5879H94.5879H94.5879H94.5879H94.5879H94.5879H94.5879H94.5879H94.5879H94.5879H94.5879H94.588H94.588H94.588H94.588H94.588H94.588H94.588H94.588H94.588H94.588H94.588H94.588H94.588H94.5881H94.5881H94.5881H94.5881H94.5881H94.5881H94.5881H94.5881H94.5881H94.5881H94.5881H94.5881H94.5881H94.5882H94.5882H94.5882H94.5882H94.5882H94.5882H94.5882H94.5882H94.5882H94.5882H94.5882H94.5882H94.5882H94.5882H94.5883H94.5883H94.5883H94.5883H94.5883H94.5883H94.5883H94.5883H94.5883H94.5883H94.5883H94.5883H94.5884H94.5884H94.5884H94.5884H94.5884H94.5884H94.5884H94.5884H94.5884H94.5884H94.5884H94.5884H94.5885H94.5885H94.5885H94.5885H94.5885H94.5885H94.5885H94.5885H94.5885H94.5885H94.5885H94.5885H94.5885H94.5886H94.5886H94.5886H94.5886H94.5886H94.5886H94.5886H94.5886H94.5886H94.5886H94.5886H94.5886H94.5887H94.5887H94.5887H94.5887H94.5887H94.5887H94.5887H94.5887H94.5887H94.5887H94.5887H94.5887H94.5887H94.5888H94.5888H94.5888H94.5888H94.5888H94.5888H94.5888H94.5888H94.5888H94.5888H94.5888H94.5888H94.5888H94.5889H94.5889H94.5889H94.5889H94.5889H94.5889H94.5889H94.5889H94.5889H94.5889H94.5889H94.5889H94.5889H94.589H94.589H94.589H94.589H94.589H94.589H94.589H94.589H94.589H94.589H94.589H94.589H94.589H94.5891H94.5891H94.5891H94.5891H94.5891H94.5891H94.5891H94.5891H94.5891H94.5891H94.5891H94.5891H94.5891H94.5892H94.5892H94.5892H94.5892H94.5892H94.5892H94.5892H94.5892H94.5892H94.5892H94.5892H94.5892H94.5892H94.5893H94.5893H94.5893H94.5893H94.5893H94.5893H94.5893H94.5893H94.5893H94.5893H94.5893H94.5893H94.5893H94.5894H94.5894H94.5894H94.5894H94.5894H94.5894H94.5894H94.5894H94.5894H94.5894H94.5894H94.5894H94.5895H94.5895H94.5895H94.5895H94.5895H94.5895H94.5895H94.5895H94.5895H94.5895H94.5895H94.5895H94.5895H94.5896H94.5896H94.5896H94.5896H94.5896H94.5896H94.5896H94.5896H94.5896H94.5896H94.5896H94.5896H94.5897H94.5897H94.5897H94.5897H94.5897H94.5897H94.5897H94.5897H94.5897H94.5897H94.5897H94.5897H94.5897H94.5898H94.5898H94.5898H94.5898H94.5898H94.5898H94.5898H94.5898H94.5898H94.5898H94.5898H94.5898H94.5899H94.5899H94.5899H94.5899H94.5899H94.5899H94.5899H94.5899H94.5899H94.5899H94.5899H94.5899H94.59H94.59H94.59H94.59H94.59H94.59H94.59H94.59H94.59H94.59H94.59H94.59H94.5901H94.5901H94.5901H94.5901H94.5901H94.5901H94.5901H94.5901H94.5901H94.5901H94.5901H94.5901H94.5902H94.5902H94.5902H94.5902H94.5902H94.5902H94.5902H94.5902H94.5902H94.5902H94.5902H94.5902H94.5903H94.5903H94.5903H94.5903H94.5903H94.5903H94.5903H94.5903H94.5903H94.5903H94.5903H94.5904H94.5904H94.5904H94.5904H94.5904H94.5904H94.5904H94.5904H94.5904H94.5904H94.5904H94.5904H94.5905H94.5905H94.5905H94.5905H94.5905H94.5905H94.5905H94.5905H94.5905H94.5905H94.5905H94.5906H94.5906H94.5908L114.925 45.7693C115.703 45.77 116.334 46.4014 116.333 47.1796C116.332 47.9573 115.701 48.5873 114.924 48.5873H114.924H114.924H114.924H114.924H114.924H114.924H114.923H114.923H114.923H114.923H114.923H114.923H114.923H114.923H114.923H114.923H114.923H114.923H114.923H114.923H114.923H114.923H114.923H114.923H114.923H114.923H114.923H114.923H114.923H114.923H114.923H114.923H114.923H114.922L94.5886 48.5681H94.5886H94.5886H94.5886H94.5885H94.5885H94.5885H94.5885H94.5885H94.5885H94.5885H94.5885H94.5885H94.5885H94.5885H94.5884H94.5884H94.5884H94.5884H94.5884H94.5884H94.5884H94.5884H94.5884H94.5884H94.5884H94.5883H94.5883H94.5883H94.5883H94.5883H94.5883H94.5883H94.5883H94.5883H94.5883H94.5883H94.5883H94.5882H94.5882H94.5882H94.5882H94.5882H94.5882H94.5882H94.5882H94.5882H94.5882H94.5882H94.5882H94.5882H94.5881H94.5881H94.5881H94.5881H94.5881H94.5881H94.5881H94.5881H94.5881H94.5881H94.5881H94.5881H94.5881H94.588H94.588H94.588H94.588H94.588H94.588H94.588H94.588H94.588H94.588H94.588H94.588H94.588H94.5879H94.5879H94.5879H94.5879H94.5879H94.5879H94.5879H94.5879H94.5879H94.5879H94.5879H94.5879H94.5878H94.5878H94.5878H94.5878H94.5878H94.5878H94.5878H94.5878H94.5878H94.5878H94.5878H94.5878H94.5878H94.5877H94.5877H94.5877H94.5877H94.5877H94.5877H94.5877H94.5877H94.5877H94.5877H94.5877H94.5877H94.5876H94.5876H94.5876H94.5876H94.5876H94.5876H94.5876H94.5876H94.5876H94.5876H94.5876H94.5876H94.5876H94.5875H94.5875H94.5875H94.5875H94.5875H94.5875H94.5875H94.5875H94.5875H94.5875H94.5875H94.5875H94.5874H94.5874H94.5874H94.5874H94.5874H94.5874H94.5874H94.5874H94.5874H94.5874H94.5874H94.5874H94.5873H94.5873H94.5873H94.5873H94.5873H94.5873H94.5873H94.5873H94.5873H94.5873H94.5873H94.5873H94.5873H94.5872H94.5872H94.5872H94.5872H94.5872H94.5872H94.5872H94.5872H94.5872H94.5872H94.5872H94.5872H94.5872H94.5871H94.5871H94.5871H94.5871H94.5871H94.5871H94.5871H94.5871H94.5871H94.5871H94.5871H94.5871H94.5871H94.587H94.587H94.587H94.587H94.587H94.587H94.587H94.587H94.587H94.587H94.587H94.587H94.5869H94.5869H94.5869H94.5869H94.5869H94.5869H94.5869H94.5869H94.5869H94.5869H94.5869H94.5869H94.5869H94.5869H94.5868H94.5868H94.5868H94.5868H94.5868H94.5868H94.5868H94.5868H94.5868H94.5868H94.5868H94.5868H94.5867H94.5867H94.5867H94.5867H94.5867H94.5867H94.5867H94.5867H94.5867H94.5867H94.5867H94.5866H94.5866H94.5866H94.5866H94.5866H94.5866C93.538 48.5681 92.6833 49.4211 92.6817 50.4699V50.47C92.6798 51.52 93.5332 52.376 94.5833 52.3776L103.101 52.3912C103.541 52.3919 103.944 52.5991 104.205 52.9329C104.405 53.0852 104.568 53.293 104.665 53.545L104.665 53.545C106.621 58.6115 112.335 61.1424 117.401 59.1863L117.491 59.4196L117.401 59.1863C118.127 58.9062 118.943 59.267 119.223 59.9933C119.503 60.7194 119.142 61.5351 118.416 61.8153C116.922 62.3923 115.382 62.6659 113.868 62.6659C109.335 62.6659 105.024 60.2146 102.767 56.1244L85.0798 73.8122L84.903 73.6354L85.0798 73.8122C84.4312 74.4607 84.4312 75.5166 85.0798 76.1651C85.7283 76.8137 86.7842 76.8137 87.4328 76.1651L101.792 61.8055C102.342 61.2553 103.235 61.2553 103.785 61.8055L125.439 58.6125ZM125.439 58.6125C125.017 62.6584 123.199 66.4711 120.323 69.3475M125.439 58.6125L120.323 69.3475M89.4207 78.1627L89.4205 78.1625L86.6892 80.8937C86.0406 81.5422 86.0406 82.5981 86.6891 83.2467C87.0038 83.5612 87.4206 83.7339 87.8655 83.7339C88.3105 83.7339 88.7274 83.5613 89.042 83.2467L105.431 66.858C105.431 66.858 105.431 66.858 105.431 66.858C105.981 66.3077 106.873 66.3078 107.423 66.858L89.4207 78.1627ZM89.4207 78.1627L89.4248 78.1582M89.4207 78.1627L89.4248 78.1582M89.4248 78.1582L89.4253 78.1577M89.4248 78.1582L89.4253 78.1577M89.4253 78.1577L89.4254 78.1576M89.4253 78.1577L89.4254 78.1576M89.4254 78.1576L103.785 63.798M89.4254 78.1576L103.785 63.798M120.323 69.3475L105.521 84.1492M120.323 69.3475L105.521 84.1492M105.521 84.1492C104.873 84.7976 103.817 84.7976 103.168 84.1492M105.521 84.1492L103.168 84.1492M103.168 84.1492C102.52 83.5006 102.52 82.4447 103.168 81.7963M103.168 84.1492L103.168 81.7963M103.168 81.7963L112.678 72.2864M103.168 81.7963L112.678 72.2864M112.678 72.2864C112.953 72.0115 113.091 71.6503 113.091 71.2902M112.678 72.2864L113.091 71.2902M113.091 71.2902C113.091 70.9303 112.954 70.569 112.678 70.294M113.091 71.2902L112.678 70.294M112.678 70.294C112.128 69.7437 111.236 69.7437 110.686 70.294C110.686 70.294 110.686 70.294 110.686 70.294L96.7759 84.2039C96.4613 84.5185 96.0444 84.6911 95.5994 84.6911C95.1544 84.6911 94.7375 84.5184 94.4229 84.2038C94.1083 83.8892 93.9356 83.4723 93.9356 83.0274C93.9356 82.5825 94.1084 82.1657 94.4229 81.851C94.4229 81.851 94.4229 81.851 94.4229 81.851L107.423 68.8506C107.974 68.3004 107.974 67.4081 107.423 66.858L112.678 70.294ZM103.785 63.798C104.06 63.523 104.198 63.1619 104.198 62.8018M103.785 63.798L104.198 62.8018M104.198 62.8018C104.198 62.4416 104.06 62.0805 103.785 61.8055L104.198 62.8018ZM89.4209 78.1621C89.4208 78.1621 89.4208 78.1621 89.4209 78.162L89.4209 78.1621Z" fill="#535455" stroke="#535455" stroke-width="0.5"/>
<path d="M90.4753 95.117C90.6703 93.852 89.1616 93.0317 88.1928 93.815L88.1928 93.815L87.9091 95.6894L88.1179 95.5519L87.9092 95.6895C88.6127 96.758 90.2846 96.3542 90.4753 95.117ZM90.4753 95.117L90.2282 95.0789L90.4753 95.117C90.4753 95.117 90.4753 95.117 90.4753 95.117Z" fill="#535455" stroke="#535455" stroke-width="0.5"/>
<path d="M71.3775 113.41L71.3775 113.41L71.3764 113.407C71.161 112.885 70.6395 112.537 70.0745 112.537C69.4821 112.537 68.9489 112.918 68.7489 113.47L68.7489 113.47C68.5527 114.013 68.7183 114.637 69.1544 115.012L69.1545 115.012C69.6391 115.429 70.3541 115.465 70.8785 115.101C71.423 114.724 71.6184 114.014 71.3775 113.41Z" fill="#535455" stroke="#535455" stroke-width="0.5"/>
<path d="M80.1322 83.1908L80.1321 83.1909C79.8991 83.749 79.331 84.0974 78.7293 84.0563C78.7293 84.0563 78.7293 84.0563 78.7293 84.0563L78.7463 83.8069L80.1322 83.1908ZM80.1322 83.1908C80.3868 82.58 80.1689 81.8459 79.6122 81.4795L80.1322 83.1908ZM79.6122 81.4794C78.5653 80.7902 77.1494 81.7539 77.4649 82.9951L79.6122 81.4794Z" fill="#535455" stroke="#535455" stroke-width="0.5"/>
<path d="M71.9429 94.5906L71.9429 94.5906C72.3248 95.1701 72.2279 95.9651 71.703 96.4283L71.703 96.4284C70.7645 97.2564 69.2399 96.4898 69.368 95.2331C69.4288 94.6361 69.8683 94.1365 70.4519 94.0005L71.9429 94.5906ZM71.9429 94.5906L71.9406 94.5871M71.9429 94.5906L71.9406 94.5871M71.9406 94.5871C71.615 94.1105 71.0226 93.8674 70.452 94.0005L71.9406 94.5871Z" fill="#535455" stroke="#535455" stroke-width="0.5"/>
<defs>
<filter id="filter0_d" x="0" y="0" width="177.621" height="159.908" filterUnits="userSpaceOnUse" color-interpolation-filters="sRGB">
<feFlood flood-opacity="0" result="BackgroundImageFix"/>
<feColorMatrix in="SourceAlpha" type="matrix" values="0 0 0 0 0 0 0 0 0 0 0 0 0 0 0 0 0 0 127 0"/>
<feOffset/>
<feGaussianBlur stdDeviation="10"/>
<feColorMatrix type="matrix" values="0 0 0 0 0 0 0 0 0 0 0 0 0 0 0 0 0 0 0.29 0"/>
<feBlend mode="normal" in2="BackgroundImageFix" result="effect1_dropShadow"/>
<feBlend mode="normal" in="SourceGraphic" in2="effect1_dropShadow" result="shape"/>
</filter>
</defs>
</svg>
