<svg width="110" height="82" viewBox="0 0 110 82" fill="none" xmlns="http://www.w3.org/2000/svg">
<path d="M30.6 0.679998C40.36 0.679998 47.64 4.44 52.44 11.96C57.24 19.48 59.64 29.04 59.64 40.64C59.64 53.04 57.12 62.92 52.08 70.28C47.04 77.64 39.72 81.32 30.12 81.32C20.52 81.32 13.28 77.56 8.4 70.04C3.52 62.52 1.04 52.88 0.96 41.12C0.96 29.2 3.48 19.48 8.52 11.96C13.56 4.44 20.92 0.679998 30.6 0.679998ZM30.36 14.48C26.92 14.48 24.2 16.72 22.2 21.2C20.2 25.68 19.2 32.32 19.2 41.12C19.2 49.84 20.16 56.44 22.08 60.92C24.08 65.32 26.88 67.52 30.48 67.52C37.76 67.52 41.4 58.64 41.4 40.88C41.4 23.28 37.72 14.48 30.36 14.48ZM91.8825 80V18.2H91.6425L76.7625 25.28L73.7625 11.6L94.5225 2H109.523V80H91.8825Z" fill="#9E9E9E"/>
</svg>
