<svg width="125" height="82" viewBox="0 0 125 82" fill="none" xmlns="http://www.w3.org/2000/svg">
<path d="M30.6 0.679998C40.36 0.679998 47.64 4.44 52.44 11.96C57.24 19.48 59.64 29.04 59.64 40.64C59.64 53.04 57.12 62.92 52.08 70.28C47.04 77.64 39.72 81.32 30.12 81.32C20.52 81.32 13.28 77.56 8.4 70.04C3.52 62.52 1.04 52.88 0.96 41.12C0.96 29.2 3.48 19.48 8.52 11.96C13.56 4.44 20.92 0.679998 30.6 0.679998ZM30.36 14.48C26.92 14.48 24.2 16.72 22.2 21.2C20.2 25.68 19.2 32.32 19.2 41.12C19.2 49.84 20.16 56.44 22.08 60.92C24.08 65.32 26.88 67.52 30.48 67.52C37.76 67.52 41.4 58.64 41.4 40.88C41.4 23.28 37.72 14.48 30.36 14.48ZM124.043 80H68.7225V68.96L78.6825 59.96C87.9625 51.64 94.5225 45.12 98.3625 40.4C102.203 35.6 104.163 31.04 104.243 26.72C104.243 23.36 103.163 20.64 101.003 18.56C98.9225 16.4 95.7625 15.32 91.5225 15.32C86.1625 15.32 80.6025 17.44 74.8425 21.68L69.6825 8.72C76.6425 3.36 85.1225 0.679998 95.1225 0.679998C103.763 0.679998 110.483 2.96 115.283 7.52C120.083 12 122.483 17.84 122.483 25.04C122.483 31.12 120.683 36.8 117.083 42.08C113.483 47.36 108.363 52.92 101.723 58.76L94.5225 64.76V65H124.043V80Z" fill="#9E9E9E"/>
</svg>
