<svg width="114" height="100" viewBox="0 0 114 100" fill="none" xmlns="http://www.w3.org/2000/svg">
<path d="M43.8239 0C25.7731 0 10.5216 13.514 8.30144 31.4683L0 99.3277H70.1761C88.2269 99.3277 103.478 85.8137 105.699 67.8595L114 0H43.8239Z" fill="white"/>
<path d="M75.9678 59.8478C76.354 58.6894 76.8366 57.6276 77.5123 56.5658C77.8019 55.9866 78.0915 55.504 78.4776 55.0213L79.4429 53.3804C79.7325 52.8012 80.022 52.222 80.3116 51.6428C80.6012 51.0637 80.8908 50.4845 81.0838 49.8088C82.0491 47.3956 82.8214 44.8859 83.2075 42.2796C83.9797 37.1636 83.5936 31.6615 81.5665 26.8351C80.5047 24.4218 79.1533 22.1052 77.3192 20.1746C75.4852 18.244 73.3616 16.603 70.9484 15.4447C68.6317 14.1898 66.0254 13.4176 63.5157 12.935C60.9094 12.4523 58.3032 12.2593 55.6969 12.3558C53.0906 12.4523 50.4844 12.8384 47.9746 13.6107C45.4649 14.3829 43.0517 15.5412 40.928 17.0857C36.6808 19.885 33.2058 24.0357 30.8891 28.7656C29.7308 31.0823 28.862 33.592 28.4759 36.2948C28.3794 36.9705 28.2828 37.6462 28.2828 38.3219C28.2828 38.708 28.2828 38.9976 28.2828 39.3837L28.2828 39.8664C28.2828 39.9629 28.2828 40.156 28.2828 40.2525C28.2828 40.7351 28.1863 41.3143 27.9932 41.7004C27.8967 41.8935 27.8002 42.1831 27.7037 42.3761L27.221 43.1483L23.4564 49.7123L21.5258 52.9942C21.0432 53.7665 20.9467 54.8283 21.2363 55.697C21.5258 56.5658 22.2015 57.338 23.0703 57.7241C23.1668 57.8207 23.2634 57.8207 23.3599 57.8207C23.4564 57.8207 23.5529 57.9172 23.6495 57.9172L24.1321 58.0137L25.0974 58.2068L26.9314 58.6894L27.8967 58.8825C28.1863 58.979 28.5724 59.0755 28.7655 59.0755C29.2481 59.1721 29.6342 59.4616 29.8273 59.7512C30.3099 60.3304 30.503 61.3922 30.4065 62.5506C30.3099 63.7089 30.1169 64.9638 30.0203 66.3152C29.9238 67.57 29.8273 69.0179 30.3099 70.5624C30.4065 70.9485 30.5995 71.3346 30.8891 71.6242C30.9856 71.8173 31.1787 71.9138 31.2752 72.1069C31.4683 72.2999 31.5648 72.3964 31.7578 72.5895C32.4335 73.0721 33.2058 73.3617 33.8815 73.4583C35.2329 73.7478 36.5843 73.8444 37.8391 73.9409C39.094 74.0374 40.3489 74.134 41.5072 74.327C43.7274 74.7131 45.7545 75.4854 46.9128 77.1263C47.492 77.8986 47.8781 78.8638 48.1677 79.9257C48.4573 80.9875 48.4573 82.0493 48.4573 83.2076C48.4573 83.5937 48.7468 83.9798 49.133 83.9798L50.6774 84.1729L82.0491 84.1729C82.0491 83.4972 82.0491 82.918 82.0491 82.2423C82.0491 81.5666 81.8561 80.8909 81.7595 80.2152C81.47 78.8638 80.8908 77.609 80.3116 76.4506C79.1533 74.1339 77.6088 72.0103 76.6435 69.8867C75.5817 67.7631 75.0026 65.4464 75.2921 63.1297C75.2921 62.0679 75.5817 60.9096 75.9678 59.8478Z" fill="#535455"/>
<path d="M46.9334 29.9126C46.7315 29.7092 46.4031 29.7079 46.1997 29.9099L44.3202 31.7753C44.1168 31.9772 44.1156 32.3057 44.3175 32.5091C44.4481 32.6406 44.6316 32.6876 44.8 32.6497C44.892 32.6291 44.9794 32.5831 45.0513 32.5118L46.9307 30.6464C47.1341 30.4445 47.1353 30.116 46.9334 29.9126Z" fill="white"/>
<path d="M43.9965 32.8288C43.7948 32.6253 43.4665 32.6237 43.2627 32.8253L43.254 32.834C43.0504 33.0357 43.0488 33.3642 43.2505 33.5678C43.381 33.6996 43.5648 33.7467 43.7334 33.7088C43.8252 33.6882 43.9125 33.6424 43.9842 33.5713L43.993 33.5626C44.1966 33.3609 44.1981 33.0324 43.9965 32.8288Z" fill="white"/>
<path d="M60.8827 16.2431C60.6929 16.0636 60.3993 16.0532 60.1973 16.2188L46.9035 27.1126C46.7534 27.2355 46.6845 27.432 46.7249 27.6218C46.7652 27.8117 46.9081 27.9631 47.0953 28.0143L50.4 28.9196L44.6158 34.661C44.4844 34.7915 44.4324 34.9821 44.4796 35.1612C44.5266 35.3403 44.6656 35.4808 44.8443 35.5297L48.5162 36.5356L40.8043 46.8141C40.6443 47.0273 40.6719 47.327 40.8681 47.5074C40.9975 47.6263 41.1723 47.6679 41.3334 47.6317C41.4169 47.6129 41.4966 47.5734 41.5645 47.5129L55.0328 35.5145C55.1748 35.388 55.2362 35.1939 55.1928 35.0087C55.1494 34.8236 55.0082 34.6769 54.8247 34.6267L51.4682 33.7071L57.4503 27.6324C57.58 27.5008 57.6298 27.31 57.5811 27.1316C57.5323 26.9533 57.3925 26.8144 57.2138 26.7669L54.321 25.9981L60.9452 16.926C61.0992 16.7151 61.0725 16.4226 60.8827 16.2431ZM53.0357 25.9988C52.9347 26.1371 52.9085 26.3165 52.9655 26.4779C53.0227 26.6394 53.1559 26.7622 53.3214 26.8062L56.0844 27.5405L50.1079 33.6095C49.9787 33.7407 49.9287 33.9306 49.9766 34.1084C50.0244 34.2863 50.1629 34.4254 50.3405 34.474L53.6292 35.375L44.7479 43.2871L49.8041 36.5482C49.9072 36.4108 49.9356 36.2313 49.88 36.0687C49.8244 35.9062 49.6919 35.7818 49.5262 35.7364L45.9833 34.7658L51.7675 29.0243C51.8989 28.8938 51.9508 28.7032 51.9037 28.5241C51.8566 28.345 51.7177 28.2045 51.539 28.1556L48.338 27.2787L57.7072 19.601L53.0357 25.9988Z" fill="white"/>
<path d="M58.1536 35.0967C57.9627 34.8829 57.6346 34.8644 57.421 35.0552L57.4118 35.0634C57.198 35.2543 57.1794 35.5823 57.3703 35.7961C57.5002 35.9417 57.6938 35.9967 57.8716 35.9567C57.9549 35.938 58.0347 35.8984 58.1029 35.8375L58.1121 35.8293C58.3258 35.6385 58.3445 35.3105 58.1536 35.0967Z" fill="white"/>
<path d="M57.0317 36.0967C56.841 35.8828 56.513 35.8639 56.2991 36.0545L54.3219 37.816C54.1079 38.0066 54.089 38.3346 54.2796 38.5485C54.4096 38.6944 54.6033 38.7496 54.7813 38.7096C54.8644 38.6909 54.9441 38.6514 55.0122 38.5908L56.9894 36.8293C57.2033 36.6387 57.2222 36.3107 57.0317 36.0967Z" fill="white"/>
<path d="M59.4459 39.1002C59.3385 38.9118 59.0988 38.8462 58.9104 38.9537L57.1698 39.9464C56.9815 40.0538 56.9159 40.2935 57.0233 40.4819C57.0928 40.6037 57.2176 40.6742 57.3482 40.6797C57.4194 40.6827 57.4923 40.6664 57.5589 40.6284L59.2994 39.6357C59.4878 39.5283 59.5534 39.2886 59.4459 39.1002Z" fill="white"/>
<path d="M56.7259 40.6523C56.6186 40.4639 56.379 40.398 56.1905 40.5052L56.1824 40.5098C55.9939 40.6171 55.928 40.8567 56.0353 41.0452C56.1047 41.1672 56.2297 41.2379 56.3603 41.2434C56.4314 41.2464 56.5042 41.2301 56.5707 41.1923L56.5788 41.1877C56.7672 41.0804 56.8331 40.8408 56.7259 40.6523Z" fill="white"/>
<path d="M72.3297 31.8609C72.2264 31.6924 72.0139 31.6269 71.8338 31.7081L59.9756 37.0486C59.8417 37.1089 59.7527 37.2388 59.7448 37.3855C59.7369 37.5321 59.8115 37.6708 59.9381 37.7452L62.1742 39.0575L56.8174 42.1128C56.6957 42.1822 56.6202 42.3113 56.6193 42.4514C56.6184 42.5916 56.6923 42.7215 56.8132 42.7925L59.2978 44.2507L51.6389 50.241C51.48 50.3653 51.4412 50.5897 51.549 50.7601C51.6201 50.8725 51.7396 50.9373 51.8645 50.9426C51.9291 50.9453 51.9952 50.9321 52.0567 50.9013L64.2599 44.7882C64.3885 44.7238 64.4716 44.594 64.4764 44.4502C64.4812 44.3064 64.4069 44.1714 64.2827 44.0986L62.0116 42.7656L67.5786 39.5058C67.6993 39.4351 67.7733 39.3056 67.7728 39.1657C67.7723 39.0258 67.6975 38.8967 67.5764 38.8269L65.6143 37.6954L72.2408 32.3722C72.3949 32.2484 72.433 32.0294 72.3297 31.8609ZM64.6751 37.4427C64.5741 37.5239 64.5196 37.6497 64.5295 37.7789C64.5395 37.9082 64.6126 38.0242 64.7248 38.0889L66.5989 39.1696L61.037 42.4264C60.9168 42.4968 60.8428 42.6257 60.8428 42.765C60.8427 42.9044 60.9165 43.0333 61.0367 43.1038L63.2619 44.4099L55.2148 48.441L60.2362 44.5135C60.3386 44.4334 60.3947 44.3079 60.3861 44.1782C60.3775 44.0485 60.3052 43.9315 60.1931 43.8657L57.7958 42.4587L63.1526 39.4033C63.2743 39.3339 63.3499 39.2048 63.3507 39.0647C63.3516 38.9246 63.2777 38.7946 63.1568 38.7237L60.9909 37.4525L69.3483 33.6887L64.6751 37.4427Z" fill="white"/>
<path d="M66.6222 45.0977C66.5249 44.9038 66.2888 44.8257 66.0952 44.923L66.0868 44.9272C65.8931 45.0246 65.8148 45.2605 65.9122 45.4543C65.9785 45.5863 66.109 45.6646 66.2468 45.6704C66.3114 45.6732 66.3775 45.66 66.4393 45.6289L66.4476 45.6247C66.6414 45.5274 66.7196 45.2914 66.6222 45.0977Z" fill="white"/>
<path d="M65.6056 45.6074C65.5084 45.4135 65.2725 45.3351 65.0787 45.4322L63.2872 46.3297C63.0933 46.4268 63.0149 46.6627 63.112 46.8566C63.1782 46.9887 63.3089 47.0672 63.4468 47.0731C63.5112 47.0758 63.5772 47.0626 63.6389 47.0317L65.4304 46.1343C65.6242 46.0371 65.7027 45.8013 65.6056 45.6074Z" fill="white"/>
<path d="M61.1584 52.4061C61.1365 52.258 60.9988 52.1557 60.8507 52.1776L59.4824 52.3798C59.3343 52.4016 59.232 52.5394 59.2539 52.6875C59.268 52.7833 59.3307 52.8599 59.4132 52.8962C59.4583 52.916 59.5093 52.9237 59.5616 52.916L60.93 52.7138C61.078 52.692 61.1803 52.5542 61.1584 52.4061Z" fill="white"/>
<path d="M59.0199 52.7225C58.9981 52.5744 58.8606 52.472 58.7124 52.4937L58.7061 52.4946C58.5579 52.5163 58.4555 52.654 58.4772 52.8021C58.4913 52.898 58.554 52.9747 58.6366 53.011C58.6816 53.0308 58.7325 53.0386 58.7847 53.0309L58.7911 53.03C58.9392 53.0082 59.0416 52.8706 59.0199 52.7225Z" fill="white"/>
<path d="M71.2598 50.9796C71.2357 50.8453 71.1154 50.75 70.9792 50.757L62.0135 51.2193C61.9122 51.2245 61.8224 51.2858 61.7806 51.3781C61.7387 51.4704 61.7519 51.5784 61.8147 51.6579L62.9239 53.0625L58.7126 53.6848C58.6169 53.699 58.536 53.7631 58.5004 53.853C58.4647 53.9429 58.4796 54.045 58.5396 54.1209L59.772 55.6816L53.3443 57.6146C53.211 57.6547 53.1297 57.7893 53.1563 57.926C53.1739 58.016 53.2345 58.0877 53.3135 58.1224C53.3544 58.1404 53.4002 58.1484 53.4475 58.144L62.8288 57.2713C62.9277 57.2621 63.0137 57.1995 63.0528 57.1082C63.092 57.0169 63.078 56.9114 63.0164 56.8334L61.8898 55.4068L66.2876 54.7057C66.3829 54.6905 66.463 54.6257 66.4978 54.5356C66.5325 54.4455 66.5168 54.3437 66.4564 54.2684L65.478 53.0488L71.0745 51.2862C71.2047 51.2452 71.2841 51.1139 71.2598 50.9796ZM64.9373 52.6509C64.852 52.6778 64.7854 52.7451 64.7594 52.8306C64.7334 52.9163 64.7513 53.0092 64.8073 53.079L65.7417 54.2438L61.348 54.9443C61.253 54.9595 61.1732 55.0238 61.1382 55.1134C61.1032 55.203 61.1184 55.3044 61.178 55.3799L62.2818 56.7778L56.0955 57.3533L60.3097 56.086C60.3957 56.0601 60.4633 55.9934 60.4902 55.9079C60.5172 55.8223 60.5 55.7289 60.4444 55.6585L59.2552 54.1526L63.4666 53.5303C63.5623 53.5161 63.6432 53.452 63.6789 53.3621C63.7146 53.2722 63.6996 53.1701 63.6397 53.0942L62.5652 51.7336L68.8841 51.4078L64.9373 52.6509Z" fill="white"/>
<path d="M64.2707 58.0625C64.2567 57.9134 64.1244 57.804 63.9755 57.818L63.969 57.8186C63.82 57.8327 63.7106 57.9648 63.7246 58.1139C63.7341 58.2154 63.7985 58.2985 63.8856 58.3368C63.9265 58.3547 63.9723 58.3628 64.0198 58.3583L64.0262 58.3577C64.1753 58.3437 64.2847 58.2115 64.2707 58.0625Z" fill="white"/>
<path d="M63.489 58.1355C63.4751 57.9864 63.3431 57.8768 63.194 57.8907L61.8168 58.0189C61.6678 58.0327 61.5582 58.1648 61.5721 58.3138C61.5815 58.4154 61.6459 58.4987 61.7331 58.537C61.7739 58.5549 61.8196 58.563 61.8671 58.5586L63.2443 58.4304C63.3933 58.4165 63.5029 58.2845 63.489 58.1355Z" fill="white"/>
</svg>
