<svg width="178" height="160" viewBox="0 0 178 160" fill="none" xmlns="http://www.w3.org/2000/svg">
<g filter="url(#filter0_d)">
<path d="M72.9042 20C51.1132 20 32.7017 36.3141 30.0215 57.9884L20 139.908H104.717C126.507 139.908 144.919 123.594 147.599 101.92L157.621 20H72.9042Z" fill="white"/>
</g>
<path d="M79.3965 113C73.1391 113 67.2609 110.567 62.8447 106.15C58.4308 101.736 56 95.8633 56 89.6146C56 85.9988 57.7498 81.3014 61.3492 75.2541C63.8309 71.0845 67.124 66.3937 71.1367 61.3119C74.7183 56.7757 81.3302 55.9791 85.8753 59.5363C86.9965 60.4139 87.1942 62.0342 86.3167 63.1554C85.4392 64.2767 83.8186 64.4744 82.6975 63.5968C80.3817 61.7845 77.0111 62.1929 75.1834 64.5074C66.2689 75.7968 61.1562 84.9479 61.1562 89.6146C61.1562 99.6662 69.3388 107.844 79.3965 107.844C88.8466 107.844 96.8334 100.45 97.5794 91.0117C97.6915 89.5923 98.9291 88.5309 100.353 88.6448C101.772 88.757 102.832 89.9986 102.719 91.4181C102.257 97.2693 99.6301 102.704 95.3227 106.721C90.9813 110.77 85.3253 113 79.3965 113ZM122 68.5348C122 64.4545 118.685 58.1869 112.146 49.9058C110.687 48.0592 108.5 47 106.145 47C103.79 47 101.602 48.0592 100.144 49.9058C93.605 58.1867 90.2897 64.4544 90.2897 68.5348C90.2897 77.2735 97.4024 84.3828 106.145 84.3828C114.887 84.3828 122 77.2735 122 68.5348ZM108.099 53.1013C113.575 60.0359 116.844 65.8054 116.844 68.5348C116.844 74.4302 112.044 79.2266 106.145 79.2266C100.245 79.2266 95.446 74.4302 95.446 68.5348C95.446 65.8054 98.715 60.0359 104.191 53.1013C104.665 52.5007 105.377 52.1562 106.145 52.1562C106.912 52.1562 107.625 52.5007 108.099 53.1013Z" fill="#535455"/>
<defs>
<filter id="filter0_d" x="0" y="0" width="177.621" height="159.908" filterUnits="userSpaceOnUse" color-interpolation-filters="sRGB">
<feFlood flood-opacity="0" result="BackgroundImageFix"/>
<feColorMatrix in="SourceAlpha" type="matrix" values="0 0 0 0 0 0 0 0 0 0 0 0 0 0 0 0 0 0 127 0"/>
<feOffset/>
<feGaussianBlur stdDeviation="10"/>
<feColorMatrix type="matrix" values="0 0 0 0 0 0 0 0 0 0 0 0 0 0 0 0 0 0 0.29 0"/>
<feBlend mode="normal" in2="BackgroundImageFix" result="effect1_dropShadow"/>
<feBlend mode="normal" in="SourceGraphic" in2="effect1_dropShadow" result="shape"/>
</filter>
</defs>
</svg>
