<svg width="95" height="78" viewBox="0 0 95 78" fill="none" xmlns="http://www.w3.org/2000/svg">
<path d="M0.393346 76.9055L7.26003 24.5193C9.08515 10.7443 21.6328 0.345152 36.5199 0.345152H94.6067L87.74 52.7314C85.9148 66.5063 73.3672 76.9055 58.4801 76.9055H0.393346Z" fill="white" stroke="#C61821" stroke-width="0.690303"/>
<path d="M26.034 59.5721C24.8012 60.805 23.1618 61.4839 21.4181 61.4839H18.6398C17.1164 61.4841 15.877 62.7235 15.877 64.2469V65.4847H22.7799C24.714 65.4847 26.5323 64.7316 27.9 63.3641L30.0957 61.1683L27.2668 58.3394L26.034 59.5721Z" fill="#C61821"/>
<path d="M32.5342 48.7423L27.7642 53.5123L34.8465 60.5946L39.6165 55.8246L44.9181 54.6919L33.6669 43.4407L32.5342 48.7423Z" fill="#C61821"/>
<path d="M35.0853 39.5347L48.8242 53.2736L72.6936 33.7442L54.6147 15.6654L35.0853 39.5347Z" fill="#C61821"/>
<path d="M59.4516 8.28363L57.9099 9.8254L56.7257 12.4517L75.9072 31.6333L78.5336 30.449L80.0752 28.9074L59.4516 8.28363Z" fill="#C61821"/>
</svg>
