<svg width="410" height="127" viewBox="0 0 410 127" fill="none" xmlns="http://www.w3.org/2000/svg">
<g filter="url(#filter0_d)">
<path d="M183.793 46.1254C182.557 46.1254 181.639 46.4593 180.921 47.1607C180.386 47.6783 180.052 48.3296 179.885 49.3983C179.835 49.7656 179.051 54.9088 178.082 61.2375H168.163C169.382 53.2389 170.451 46.1254 170.451 46.1254C170.451 46.1254 163.588 46.1254 162.419 46.1254C161.166 46.1254 160.248 46.4593 159.547 47.1607C159.012 47.6783 158.678 48.3296 158.511 49.3983C158.361 50.4169 152.884 86.5023 152.884 86.5023C152.884 86.5023 159.747 86.5023 160.916 86.5023C162.168 86.5023 163.07 86.1683 163.788 85.467C164.322 84.9493 164.656 84.2981 164.823 83.2294C164.89 82.8286 165.742 77.2012 166.76 70.4383H176.679C175.41 78.8043 174.241 86.4856 174.241 86.4856C174.241 86.4856 181.104 86.4856 182.273 86.4856C183.509 86.4856 184.427 86.1516 185.145 85.4503C185.68 84.9326 186.014 84.2814 186.181 83.2127C186.331 82.1941 191.808 46.1087 191.808 46.1087C191.808 46.1087 184.962 46.1254 183.793 46.1254Z" fill="#00538E"/>
<path d="M218.359 47.144C218.092 47.3945 217.841 47.7451 217.591 48.1125L204.75 65.7795C206.119 56.7289 206.169 56.4284 207.739 46.1254C207.739 46.1254 201.042 46.1254 199.89 46.1254C198.638 46.1254 197.719 46.4594 197.018 47.1607C196.484 47.6784 196.15 48.3296 195.983 49.3983C195.833 50.4169 190.355 86.5023 190.355 86.5023C190.355 86.5023 197.219 86.5023 198.387 86.5023C199.623 86.5023 200.542 86.1683 201.26 85.467C201.51 85.2165 201.761 84.8659 201.944 84.582L214.835 66.9484C213.383 76.55 211.863 86.5023 211.863 86.5023C211.863 86.5023 218.559 86.5023 219.711 86.5023C220.964 86.5023 221.865 86.1683 222.584 85.467C223.118 84.9493 223.452 84.2981 223.619 83.2294C223.769 82.2108 229.246 46.1254 229.246 46.1254C229.246 46.1254 222.383 46.1254 221.214 46.1254C219.979 46.1254 219.06 46.4427 218.359 47.144Z" fill="#00538E"/>
<path d="M150.897 51.018C148.225 47.0104 144.318 45.3572 138.557 45.3572C128.003 45.3572 119.003 52.3873 116.932 65.2451C114.845 78.2198 121.741 87.237 134.866 87.237C139.759 87.237 143.767 86.3854 146.973 84.6488C148.375 83.8806 149.06 82.9121 149.294 81.1087C149.427 80.1068 150.346 73.8949 150.346 73.8949C146.756 76.1993 142.113 78.153 136.82 78.153C129.94 78.153 127.252 74.9636 127.669 69.3863C132.796 69.3863 147.273 69.3863 148.225 69.3863C149.594 69.3863 150.596 69.0357 151.381 68.2842C151.966 67.7165 152.35 66.9651 152.517 65.8797C153.585 59.0333 153.084 54.3076 150.897 51.018ZM142.631 61.0872C140.227 61.0872 133.029 61.0872 128.788 61.0872C129.807 56.8625 133.38 53.623 137.538 53.623C141.946 53.623 143.433 56.6788 142.631 61.0872Z" fill="#00538E"/>
<path d="M47.6002 65.195C46.7152 65.195 46.0473 65.4288 45.5463 65.9298C45.1623 66.2971 44.9285 66.7647 44.8116 67.5328C44.6947 68.2675 44.0101 72.8262 44.0101 72.8262C44.0101 72.8262 48.9361 72.8262 49.771 72.8262C50.6561 72.8262 51.324 72.5924 51.825 72.0915C52.209 71.7074 52.4428 71.2566 52.5597 70.4884C52.6766 69.7537 53.3612 65.195 53.3612 65.195C53.3612 65.195 48.4352 65.195 47.6002 65.195Z" fill="#00538E"/>
<path d="M43.8431 75.5481C43.626 75.7485 43.4924 76.0156 43.4256 76.4331C43.3588 76.8339 42.9747 79.372 42.9747 79.372C42.9747 79.372 45.7133 79.372 46.1808 79.372C46.6818 79.372 47.0492 79.2385 47.333 78.9546C47.5501 78.7542 47.6837 78.487 47.7505 78.0696C47.8173 77.6688 48.2014 75.1306 48.2014 75.1306C48.2014 75.1306 45.4628 75.1306 44.9952 75.1306C44.4943 75.1306 44.1269 75.2642 43.8431 75.5481Z" fill="#00538E"/>
<path d="M36.262 71.0228C35.9614 71.3067 35.7778 71.6741 35.6943 72.2585C35.6108 72.8263 35.0764 76.3162 35.0764 76.3162C35.0764 76.3162 38.867 76.3162 39.5015 76.3162C40.1861 76.3162 40.6871 76.1326 41.0879 75.7485C41.3884 75.4646 41.5721 75.0973 41.6556 74.5128C41.7391 73.9451 42.2735 70.4551 42.2735 70.4551C42.2735 70.4551 38.4829 70.4551 37.8484 70.4551C37.1637 70.4551 36.6628 70.6388 36.262 71.0228Z" fill="#00538E"/>
<path d="M30.7347 68.9521C30.551 69.1358 30.4342 69.3529 30.3841 69.7036C30.3173 70.0542 30 72.2083 30 72.2083C30 72.2083 32.3211 72.2083 32.7219 72.2083C33.1393 72.2083 33.4566 72.0914 33.6904 71.8577C33.874 71.674 33.9909 71.4569 34.041 71.1062C34.0911 70.7556 34.4251 68.6015 34.4251 68.6015C34.4251 68.6015 32.104 68.6015 31.7032 68.6015C31.2858 68.6015 30.9685 68.7184 30.7347 68.9521Z" fill="#00538E"/>
<path d="M94.8234 34.6368C95.5582 29.8611 96.0257 26.7885 96.0257 26.7885C96.0257 26.7885 88.9623 26.7885 87.7934 26.7885C86.541 26.7885 85.6059 27.1225 84.8878 27.8238C84.3535 28.3582 84.0195 29.0094 83.8525 30.0781C83.8358 30.2451 83.5687 31.9317 83.1679 34.6368C80.8969 34.6368 79.0768 34.6368 77.8244 34.6368C70.9613 34.6368 66.9871 35.9393 63.8478 38.3105C60.0071 41.216 58.4541 45.1068 57.6693 50.1664C56.7676 56.0777 55.8993 61.8052 55.1646 66.6645C56.0329 66.1134 57.0849 65.8463 58.3206 65.8463H66.3692C66.9203 62.206 68.2729 53.1387 68.54 51.3186C68.8406 49.2981 69.4918 47.9622 70.5605 47.0438C71.7294 46.0252 73.2323 45.5576 75.5534 45.5576C76.6054 45.5576 80.2958 45.5576 81.498 45.5576C80.4794 52.2537 79.2771 60.1521 78.1416 67.6497C74.4179 67.6497 70.8611 67.6497 67.9055 67.6497C67.9055 67.6497 66.8368 74.6464 66.7032 75.4646L66.6698 75.7151C66.4861 76.9174 66.0854 77.8358 65.4174 78.6039C68.9241 78.6039 72.6646 78.6039 76.4718 78.6039C75.2361 86.686 74.3678 92.5137 74.3678 92.5137C74.3678 92.5137 81.4312 92.5137 82.6001 92.5137C83.8525 92.5137 84.7876 92.1798 85.5057 91.4784C86.04 90.9441 86.3907 90.2928 86.541 89.2241C86.5744 88.957 87.2256 84.7489 88.144 78.6206C90.415 78.6206 92.2519 78.6206 93.5042 78.6206C100.367 78.6206 104.342 77.3181 107.481 74.9469C111.322 72.0414 112.874 68.1507 113.659 63.091C115.863 48.6635 117.984 34.6368 117.984 34.6368C117.984 34.6368 105.995 34.6368 94.8234 34.6368ZM102.755 61.9388C102.471 63.8591 101.887 65.195 100.735 66.2136C99.5324 67.2823 97.946 67.6831 95.7585 67.6831C95.0071 67.6831 91.0162 67.6831 89.8139 67.6831C90.916 60.4527 92.1016 52.5877 93.1703 45.591C97.7123 45.591 102.121 45.591 105.227 45.591C104.625 49.5152 103.557 56.5452 102.755 61.9388Z" fill="#00538E"/>
<path d="M58.3039 67.6831C57.1016 67.6831 56.2166 68.0004 55.5152 68.685C54.9976 69.186 54.6803 69.8205 54.5133 70.8558C54.4799 71.0729 54.0124 74.0786 53.311 78.654C53.311 78.654 59.9737 78.654 61.0925 78.654C62.2948 78.654 63.1798 78.3367 63.8812 77.6521C64.3988 77.1511 64.7161 76.5166 64.8831 75.4813C64.9165 75.2642 65.384 72.2585 66.0854 67.6831C66.0854 67.6831 59.4394 67.6831 58.3039 67.6831Z" fill="#00538E"/>
<path d="M339.573 47.8119C339.573 47.8119 320.72 71.5571 318.6 74.1788C316.412 76.8839 315.928 77.602 315.227 78.7041L315.143 78.6707C315.477 77.5018 315.694 76.7671 316.195 73.4942C316.746 69.8038 320.37 46.1421 320.37 46.1421C320.37 46.1421 319.184 46.1421 318.032 46.1421C316.429 46.1421 315.143 47.0772 314.859 48.9641C314.692 50.0662 311.536 70.8892 309.165 86.519C310.417 86.519 310.601 86.519 311.236 86.519C314.024 86.519 314.625 86.3019 315.844 84.8324C315.844 84.8324 334.463 61.4212 336.267 59.2003C338.771 56.111 339.206 55.4598 340.041 54.1072L340.141 54.1573C339.757 55.6936 339.656 56.445 339.039 60.2189C338.588 63.0242 335.031 86.519 335.031 86.519C335.031 86.519 336.217 86.519 337.369 86.519C338.972 86.519 340.258 85.5839 340.541 83.6969C340.708 82.5948 343.864 61.7718 346.236 46.1421C344.983 46.1421 344.8 46.1421 344.165 46.1421C341.393 46.1254 340.792 46.3424 339.573 47.8119Z" fill="#00538E"/>
<path d="M293.969 45.3572C285.687 45.3572 276.353 51.9865 274.165 65.5624C271.76 80.6077 279.509 87.237 289.945 87.237C294.554 87.237 298.194 86.3687 300.615 85.0161C301.601 84.4651 302.035 83.7804 302.202 82.695C302.302 81.9937 302.669 79.7728 302.853 78.654C299.396 81.2757 295.422 82.7618 290.646 82.7618C281.746 82.7618 277.555 76.8506 279.008 67.3491H302.82C304.723 67.3491 305.558 66.8983 305.875 64.9946C305.926 64.6774 306.042 63.9426 306.093 63.6254C306.911 58.165 306.627 54.341 304.89 51.1015C302.803 47.2275 299.129 45.3572 293.969 45.3572ZM300.983 62.9073H279.876C281.813 55.1592 287.641 49.8658 293.836 49.8658C296.641 49.8658 298.578 50.7675 299.964 52.7213C301.584 55.0257 301.851 58.5824 300.983 62.9073Z" fill="#00538E"/>
<path d="M352.765 46.1254C350.995 46.1254 350.21 46.8434 349.993 48.3296C349.826 49.4818 349.642 50.5672 349.642 50.5672C349.642 50.5672 355.787 50.5672 362.266 50.5672L356.806 86.4856C356.806 86.4856 357.991 86.4856 359.144 86.4856C360.747 86.4856 362.049 85.5505 362.316 83.6635C362.467 82.6616 365.088 65.4288 367.343 50.5505C371.985 50.5505 375.959 50.5505 376.894 50.5505C378.664 50.5505 379.432 49.8658 379.666 48.3463C379.866 47.1106 380 46.1087 380 46.1087C380 46.1087 355.27 46.1254 352.765 46.1254Z" fill="#00538E"/>
<path d="M264.831 36.9579C261.741 35.1044 258.953 34.6368 251.338 34.6368C247.932 34.6368 244.909 34.6368 242.254 34.6535C240.551 34.6535 239.182 35.5553 238.848 37.6593C238.564 39.4794 231.417 86.519 231.417 86.519C235.942 86.519 241.002 86.519 246.646 86.519C254.645 86.519 258.652 86.0013 262.593 83.5801C266.367 81.259 268.521 77.9026 269.055 72.7762C269.723 66.4474 267.068 61.3377 261.107 59.1669C266.25 57.3635 269.239 53.7065 269.89 48.4966C270.475 43.9045 268.938 39.4126 264.831 36.9579ZM263.712 72.5257C263.344 75.4646 262.059 77.9527 259.103 79.7394C256.097 81.5595 252.123 81.8601 246.178 81.8601C242.672 81.8601 241.202 81.8601 237.462 81.8601C237.929 78.7375 239.148 70.8057 240.568 61.4713C244.175 61.4713 246.83 61.4713 249.051 61.4713C253.826 61.4713 256.615 61.7552 259.237 63.0242C262.894 64.7776 264.196 68.518 263.712 72.5257ZM264.664 48.2628C264.38 51.0848 263.077 53.6731 259.554 55.3263C256.682 56.6788 253.075 56.946 246.729 56.946C244.358 56.946 243.022 56.946 241.252 56.946C242.238 50.4169 243.106 44.6726 243.958 39.112C246.128 39.112 248.416 39.112 251.322 39.112C257.45 39.112 259.955 39.5796 261.992 41.0992C263.962 42.5853 264.998 44.9899 264.664 48.2628Z" fill="#00538E"/>
<path d="M337.853 34.3195L337.786 34.5867C337.252 36.5905 335.766 39.9469 331.725 39.9469C330.456 39.9469 329.454 39.5629 328.752 38.8114C327.884 37.893 327.467 36.4403 327.567 34.6869L327.584 34.3195H323.793L323.76 34.6368C323.543 37.342 324.127 39.5128 325.463 40.9488C326.732 42.3348 328.669 43.4035 331.224 43.4035C336.684 43.4035 340.425 40.0137 341.493 34.737L341.577 34.3195H337.853Z" fill="#00538E"/>
</g>
<defs>
<filter id="filter0_d" x="0" y="0.788544" width="410" height="125.725" filterUnits="userSpaceOnUse" color-interpolation-filters="sRGB">
<feFlood flood-opacity="0" result="BackgroundImageFix"/>
<feColorMatrix in="SourceAlpha" type="matrix" values="0 0 0 0 0 0 0 0 0 0 0 0 0 0 0 0 0 0 127 0"/>
<feOffset dy="4"/>
<feGaussianBlur stdDeviation="15"/>
<feColorMatrix type="matrix" values="0 0 0 0 1 0 0 0 0 1 0 0 0 0 1 0 0 0 1 0"/>
<feBlend mode="normal" in2="BackgroundImageFix" result="effect1_dropShadow"/>
<feBlend mode="normal" in="SourceGraphic" in2="effect1_dropShadow" result="shape"/>
</filter>
</defs>
</svg>
