<svg width="114" height="100" viewBox="0 0 114 100" fill="none" xmlns="http://www.w3.org/2000/svg">
<path d="M43.8239 0C25.7731 0 10.5216 13.514 8.30144 31.4683L0 99.3277H70.1761C88.2269 99.3277 103.478 85.8137 105.699 67.8595L114 0H43.8239Z" fill="white"/>
<path d="M90.6144 58.9428C89.8419 56.0597 87.9929 53.6501 85.4079 52.1577C85.1371 52.0014 84.8608 51.86 84.5813 51.7277C84.71 50.647 84.7766 49.5544 84.7766 48.4632C84.7766 42.8322 83.0745 37.4262 79.8546 32.8298C77.0038 28.7603 73.1568 25.5819 68.6643 23.5685C68.6689 23.4374 68.6744 23.3064 68.6744 23.1743C68.6744 17.0127 63.6616 12 57.5 12C51.3385 12 46.3257 17.0128 46.3257 23.1743C46.3257 23.3066 46.3312 23.4375 46.3358 23.5685C41.8432 25.582 37.9962 28.7605 35.1455 32.8298C31.9255 37.4261 30.2234 42.832 30.2234 48.4631C30.2234 49.5544 30.2899 50.6468 30.4188 51.7275C30.1393 51.8598 29.8629 52.0011 29.5922 52.1575C27.0072 53.6501 25.1581 56.0597 24.3855 58.9428C23.6131 61.8259 24.0095 64.8372 25.5019 67.4221C26.9942 70.007 29.4039 71.856 32.287 72.6286C33.2498 72.8867 34.2266 73.0142 35.1973 73.0142C37.1335 73.0142 39.0445 72.5064 40.7663 71.5124C41.142 71.2954 41.5001 71.057 41.8436 70.8027C46.4382 74.0381 51.8166 75.74 57.4999 75.74C63.1833 75.74 68.5617 74.038 73.1562 70.8027C73.4998 71.057 73.858 71.2955 74.2336 71.5124C75.9555 72.5065 77.8662 73.0144 79.8025 73.0142C80.773 73.0142 81.7502 72.8867 82.7128 72.6286C85.5959 71.8561 88.0056 70.0071 89.4979 67.4221C90.9905 64.8372 91.387 61.826 90.6144 58.9428ZM57.5 15.975C61.4697 15.975 64.6991 19.2046 64.6991 23.1741C64.6991 27.1436 61.4695 30.3732 57.5 30.3732C53.5306 30.3732 50.3009 27.1437 50.3009 23.1741C50.3009 19.2045 53.5304 15.975 57.5 15.975ZM42.133 63.6985C41.6352 65.5558 40.444 67.1082 38.7786 68.0697C37.1133 69.031 35.1733 69.2866 33.3158 68.7889C31.4582 68.2913 29.906 67.0999 28.9444 65.4346C27.9829 63.7693 27.7274 61.8292 28.2252 59.9717C28.7229 58.1142 29.9142 56.5619 31.5795 55.6004C32.6888 54.96 33.9198 54.6328 35.1674 54.6328C35.7926 54.6328 36.4223 54.7151 37.0423 54.8813C38.8998 55.379 40.4521 56.5703 41.4138 58.2356C42.3752 59.9009 42.6307 61.8409 42.133 63.6985ZM69.0272 64.727C69.3296 65.8553 69.7989 66.9098 70.4105 67.8662C66.5902 70.4227 62.1654 71.7644 57.4999 71.7644C52.8345 71.7645 48.4098 70.4227 44.5895 67.8662C45.2011 66.9095 45.6705 65.8553 45.9726 64.727C46.7451 61.8439 46.3487 58.8326 44.8563 56.2477C43.3638 53.6629 40.9542 51.8138 38.0711 51.0412C36.8246 50.7072 35.5543 50.5927 34.3047 50.6899C34.2347 49.9509 34.1984 49.2067 34.1984 48.4631C34.1984 39.5858 39.3518 31.4325 47.2182 27.5483C48.9238 31.5421 52.89 34.3483 57.4999 34.3483C62.1098 34.3483 66.076 31.5419 67.7817 27.5483C75.648 31.4325 80.8014 39.5858 80.8014 48.4631C80.8014 49.2069 80.7651 49.9509 80.6951 50.69C79.4456 50.5929 78.1752 50.7074 76.9287 51.0412C74.0456 51.8137 71.636 53.6628 70.1435 56.2477C68.6511 58.8327 68.2547 61.8439 69.0272 64.727ZM86.0555 65.4346C85.0941 67.0999 83.5416 68.2913 81.6843 68.7889C79.8266 69.2864 77.8868 69.0311 76.2214 68.0697C74.5561 67.1083 73.3648 65.5558 72.8671 63.6985C72.3695 61.8409 72.6249 59.9009 73.5863 58.2356C74.5477 56.5703 76.1003 55.379 77.9578 54.8813C78.5781 54.7151 79.2074 54.6328 79.8326 54.6328C81.0801 54.6328 82.3114 54.96 83.4205 55.6004C85.0859 56.5618 86.2772 58.1143 86.7749 59.9717C87.2724 61.8292 87.0169 63.7692 86.0555 65.4346Z" fill="#535455"/>
</svg>
