<svg width="401" height="112" viewBox="0 0 401 112" fill="none" xmlns="http://www.w3.org/2000/svg">
<path d="M2.35333 13.8708C3.44508 5.92257 10.2365 0.000244141 18.2593 0.000244141H160L158.019 16.8257C157.067 24.9107 150.215 31.0037 142.074 31.0037H0L2.35333 13.8708Z" fill="#BC2D4D"/>
<path d="M39.5746 7.194H41.9116V12.324H47.3266V7.194H49.6636V20H47.3266V14.357H41.9116V20H39.5746V7.194ZM56.4443 10.538C57.8123 10.538 58.9206 10.9813 59.7693 11.868C60.6179 12.742 61.0423 13.882 61.0423 15.288C61.0423 16.884 60.5736 18.1063 59.6363 18.955C58.6989 19.791 57.5843 20.209 56.2923 20.209C54.9496 20.209 53.8413 19.7783 52.9673 18.917C52.0933 18.0557 51.6563 16.8967 51.6563 15.44C51.6563 13.9453 52.0996 12.7547 52.9863 11.868C53.8729 10.9813 55.0256 10.538 56.4443 10.538ZM56.3873 12.229C55.6146 12.229 55.0319 12.5393 54.6393 13.16C54.2593 13.7807 54.0693 14.5217 54.0693 15.383C54.0693 16.295 54.2783 17.0487 54.6963 17.644C55.1143 18.2267 55.6716 18.518 56.3683 18.518C57.0396 18.518 57.5843 18.2267 58.0023 17.644C58.4203 17.0487 58.6293 16.2823 58.6293 15.345C58.6293 14.5217 58.4393 13.7997 58.0593 13.179C57.6793 12.5457 57.1219 12.229 56.3873 12.229ZM62.9509 20V10.861C63.8629 10.709 64.9902 10.633 66.3329 10.633C69.2335 10.633 70.6839 11.412 70.6839 12.97C70.6839 13.5273 70.5002 13.9833 70.1329 14.338C69.7782 14.68 69.3285 14.908 68.7839 15.022V15.06C69.5059 15.174 70.0695 15.421 70.4749 15.801C70.8929 16.181 71.1019 16.6877 71.1019 17.321C71.1019 19.183 69.3729 20.114 65.9149 20.114C65.5729 20.114 65.1992 20.1077 64.7939 20.095C64.4012 20.0823 64.0212 20.0633 63.6539 20.038C63.2865 20.0127 63.0522 20 62.9509 20ZM65.2499 12.21V14.49H66.2189C67.6629 14.49 68.3849 14.0847 68.3849 13.274C68.3849 12.514 67.7135 12.134 66.3709 12.134C66.0795 12.134 65.7059 12.1593 65.2499 12.21ZM65.2309 15.896V18.594C65.4842 18.6193 65.8579 18.632 66.3519 18.632C66.9979 18.632 67.5489 18.5307 68.0049 18.328C68.4735 18.1127 68.7079 17.758 68.7079 17.264C68.7079 16.352 67.8782 15.896 66.2189 15.896H65.2309ZM72.989 10.747H75.212V14.072C75.212 15.06 75.1676 16.3077 75.079 17.815H75.155C75.953 16.067 76.371 15.155 76.409 15.079L78.67 10.747H81.501V20H79.278V16.694C79.278 15.9467 79.3286 14.642 79.43 12.78H79.354C78.9486 13.7553 78.5433 14.642 78.138 15.44C76.96 17.72 76.1746 19.24 75.782 20H72.989V10.747ZM83.9733 10.747H86.3103V14.281H89.8823V10.747H92.2193V20H89.8823V16.105H86.3103V20H83.9733V10.747ZM94.717 10.747H97.054V14.585H97.396L100.246 10.747H103.02L99.334 14.813C99.942 14.9017 100.455 15.174 100.873 15.63C101.304 16.0733 101.684 16.6877 102.013 17.473C102.064 17.5997 102.152 17.8467 102.279 18.214C102.418 18.5687 102.551 18.898 102.678 19.202C102.805 19.4933 102.931 19.7593 103.058 20H100.626C100.449 19.7213 100.164 19.0627 99.771 18.024C99.505 17.378 99.182 16.903 98.802 16.599C98.422 16.295 97.9406 16.143 97.358 16.143H97.054V20H94.717V10.747ZM111.714 14.452V17.777C111.714 18.7523 111.765 19.4933 111.866 20H109.757L109.586 18.974H109.529C108.896 19.7973 107.984 20.209 106.793 20.209C105.907 20.209 105.197 19.9367 104.665 19.392C104.146 18.8473 103.886 18.2013 103.886 17.454C103.886 16.314 104.368 15.4463 105.33 14.851C106.293 14.243 107.642 13.9453 109.377 13.958V13.806C109.377 13.388 109.244 13.0143 108.978 12.685C108.712 12.3557 108.218 12.191 107.496 12.191C106.559 12.191 105.729 12.419 105.007 12.875L104.551 11.355C105.438 10.8103 106.553 10.538 107.895 10.538C109.263 10.538 110.239 10.9053 110.821 11.64C111.417 12.362 111.714 13.2993 111.714 14.452ZM109.434 16.751V15.478C107.281 15.4527 106.204 16.029 106.204 17.207C106.204 17.6377 106.325 17.967 106.565 18.195C106.819 18.423 107.142 18.537 107.534 18.537C107.99 18.537 108.377 18.4167 108.693 18.176C109.023 17.9227 109.251 17.6187 109.377 17.264C109.415 17.15 109.434 16.979 109.434 16.751ZM118.209 6.966L119.634 7.802L117.696 10.196V10.234L120.66 9.74V11.374L117.677 10.918V10.975L119.634 13.293L118.171 14.129L117.05 11.317L117.012 11.336L115.872 14.148L114.485 13.293L116.404 10.956V10.899L113.497 11.374V9.74L116.385 10.234V10.196L114.485 7.821L115.929 6.985L117.05 9.778H117.088L118.209 6.966Z" fill="white"/>
<path d="M176.203 58.1544C174.787 58.1544 173.735 58.537 172.912 59.3405C172.3 59.9336 171.917 60.6798 171.726 61.9042C171.669 62.3251 170.769 68.2176 169.66 75.4686H158.295C159.692 66.3045 160.917 58.1544 160.917 58.1544C160.917 58.1544 153.053 58.1544 151.714 58.1544C150.279 58.1544 149.227 58.537 148.424 59.3405C147.811 59.9336 147.429 60.6798 147.237 61.9042C147.065 63.0712 140.79 104.415 140.79 104.415C140.79 104.415 148.653 104.415 149.992 104.415C151.427 104.415 152.46 104.032 153.283 103.229C153.895 102.636 154.278 101.889 154.469 100.665C154.546 100.206 155.521 93.7584 156.688 86.0101H168.053C166.599 95.5951 165.259 104.396 165.259 104.396C165.259 104.396 173.123 104.396 174.462 104.396C175.877 104.396 176.93 104.013 177.752 103.209C178.365 102.616 178.747 101.87 178.939 100.646C179.111 99.4788 185.386 58.1353 185.386 58.1353C185.386 58.1353 177.542 58.1544 176.203 58.1544Z" fill="#00538E"/>
<path d="M215.805 59.3216C215.499 59.6085 215.212 60.0103 214.925 60.4312L200.213 80.6725C201.782 70.3032 201.839 69.9588 203.638 58.1545C203.638 58.1545 195.966 58.1545 194.646 58.1545C193.211 58.1545 192.159 58.5372 191.355 59.3407C190.743 59.9338 190.36 60.6799 190.169 61.9044C189.997 63.0714 183.722 104.415 183.722 104.415C183.722 104.415 191.585 104.415 192.924 104.415C194.34 104.415 195.392 104.032 196.215 103.229C196.502 102.942 196.788 102.54 196.999 102.215L211.769 82.0117C210.104 93.0125 208.363 104.415 208.363 104.415C208.363 104.415 216.035 104.415 217.355 104.415C218.79 104.415 219.823 104.032 220.646 103.229C221.258 102.636 221.641 101.89 221.832 100.665C222.004 99.4981 228.279 58.1545 228.279 58.1545C228.279 58.1545 220.416 58.1545 219.077 58.1545C217.661 58.1545 216.609 58.518 215.805 59.3216Z" fill="#00538E"/>
<path d="M138.513 63.7601C135.452 59.1685 130.975 57.2744 124.375 57.2744C112.284 57.2744 101.972 65.3289 99.5994 80.0602C97.208 94.9256 105.109 105.257 120.147 105.257C125.752 105.257 130.344 104.281 134.017 102.291C135.624 101.411 136.409 100.302 136.677 98.2353C136.83 97.0874 137.882 89.9705 137.882 89.9705C133.769 92.6106 128.45 94.849 122.385 94.849C114.503 94.849 111.423 91.1949 111.901 84.8049C117.775 84.8049 134.362 84.8049 135.452 84.8049C137.021 84.8049 138.169 84.4031 139.068 83.5422C139.738 82.8917 140.178 82.0308 140.369 80.7872C141.593 72.9433 141.02 67.529 138.513 63.7601ZM129.043 75.2965C126.288 75.2965 118.042 75.2965 113.183 75.2965C114.35 70.4561 118.444 66.7446 123.208 66.7446C128.259 66.7446 129.961 70.2457 129.043 75.2965Z" fill="#00538E"/>
<path d="M20.1648 80.0029C19.1508 80.0029 18.3856 80.2708 17.8116 80.8447C17.3716 81.2656 17.1038 81.8013 16.9698 82.6814C16.8359 83.5232 16.0515 88.7461 16.0515 88.7461C16.0515 88.7461 21.6954 88.7461 22.6519 88.7461C23.6659 88.7461 24.4312 88.4783 25.0051 87.9043C25.4452 87.4643 25.713 86.9477 25.8469 86.0677C25.9809 85.2259 26.7653 80.0029 26.7653 80.0029C26.7653 80.0029 21.1214 80.0029 20.1648 80.0029Z" fill="#00538E"/>
<path d="M15.8602 91.8645C15.6115 92.0941 15.4584 92.4002 15.3819 92.8785C15.3054 93.3377 14.8654 96.2457 14.8654 96.2457C14.8654 96.2457 18.003 96.2457 18.5386 96.2457C19.1126 96.2457 19.5335 96.0926 19.8587 95.7674C20.1074 95.5378 20.2605 95.2317 20.337 94.7534C20.4135 94.2942 20.8536 91.3862 20.8536 91.3862C20.8536 91.3862 17.716 91.3862 17.1803 91.3862C16.6063 91.3862 16.1854 91.5393 15.8602 91.8645Z" fill="#00538E"/>
<path d="M7.17445 86.6798C6.83008 87.005 6.61963 87.4259 6.52397 88.0955C6.42832 88.746 5.8161 92.7445 5.8161 92.7445C5.8161 92.7445 10.159 92.7445 10.886 92.7445C11.6704 92.7445 12.2443 92.5341 12.7035 92.094C13.0479 91.7688 13.2583 91.3479 13.354 90.6783C13.4496 90.0278 14.0619 86.0293 14.0619 86.0293C14.0619 86.0293 9.71896 86.0293 8.99196 86.0293C8.20756 86.0293 7.63361 86.2397 7.17445 86.6798Z" fill="#00538E"/>
<path d="M0.841794 84.3075C0.631345 84.518 0.497424 84.7667 0.440029 85.1685C0.363502 85.5702 0 88.0382 0 88.0382C0 88.0382 2.6593 88.0382 3.11846 88.0382C3.59676 88.0382 3.96026 87.9043 4.2281 87.6364C4.43855 87.426 4.57247 87.1773 4.62987 86.7755C4.68726 86.3737 5.0699 83.9058 5.0699 83.9058C5.0699 83.9058 2.41059 83.9058 1.95143 83.9058C1.47314 83.9058 1.10964 84.0397 0.841794 84.3075Z" fill="#00538E"/>
<path d="M74.2691 44.9919C75.1109 39.5202 75.6466 36 75.6466 36C75.6466 36 67.5539 36 66.2147 36C64.7798 36 63.7084 36.3826 62.8857 37.1862C62.2735 37.7984 61.8909 38.5445 61.6996 39.7689C61.6805 39.9603 61.3743 41.8926 60.9152 44.9919C58.3133 44.9919 56.2279 44.9919 54.793 44.9919C46.9299 44.9919 42.3766 46.4842 38.7798 49.2009C34.3795 52.5298 32.6003 56.9875 31.7011 62.7844C30.668 69.557 29.6732 76.1191 28.8314 81.6865C29.8262 81.0551 31.0315 80.749 32.4472 80.749H41.6687C42.3001 76.5783 43.8497 66.1898 44.1558 64.1044C44.5002 61.7895 45.2463 60.259 46.4708 59.2067C47.81 58.0397 49.5318 57.504 52.1911 57.504C53.3964 57.504 57.6245 57.504 59.002 57.504C57.835 65.1758 56.4575 74.2251 55.1565 82.8152C50.8902 82.8152 46.8151 82.8152 43.4288 82.8152C43.4288 82.8152 42.2044 90.8314 42.0513 91.7688L42.0131 92.0558C41.8026 93.4333 41.3435 94.4855 40.5782 95.3656C44.5959 95.3656 48.8814 95.3656 53.2434 95.3656C51.8276 104.625 50.8328 111.302 50.8328 111.302C50.8328 111.302 58.9255 111.302 60.2647 111.302C61.6996 111.302 62.771 110.92 63.5936 110.116C64.2058 109.504 64.6076 108.758 64.7798 107.533C64.8181 107.227 65.5642 102.406 66.6164 95.3847C69.2183 95.3847 71.3228 95.3847 72.7577 95.3847C80.6208 95.3847 85.1742 93.8925 88.7709 91.1758C93.1712 87.8469 94.9504 83.3892 95.8496 77.5923C98.375 61.0625 100.805 44.9919 100.805 44.9919C100.805 44.9919 87.0682 44.9919 74.2691 44.9919ZM83.3566 76.2722C83.0314 78.4723 82.3618 80.0029 81.0417 81.1699C79.6642 82.3943 77.8467 82.8535 75.3405 82.8535C74.4795 82.8535 69.9071 82.8535 68.5296 82.8535C69.7923 74.5695 71.1506 65.5584 72.3751 57.5423C77.5789 57.5423 82.6296 57.5423 86.1881 57.5423C85.4994 62.0382 84.275 70.0927 83.3566 76.2722Z" fill="#00538E"/>
<path d="M32.4281 82.8535C31.0507 82.8535 30.0367 83.217 29.2331 84.0014C28.6401 84.5754 28.2766 85.3024 28.0852 86.4885C28.047 86.7372 27.5113 90.1809 26.7078 95.423C26.7078 95.423 34.3413 95.423 35.6231 95.423C37.0006 95.423 38.0146 95.0595 38.8181 94.2751C39.4112 93.7012 39.7747 92.9742 39.966 91.788C40.0043 91.5393 40.54 88.0956 41.3435 82.8535C41.3435 82.8535 33.7291 82.8535 32.4281 82.8535Z" fill="#00538E"/>
<path d="M354.682 60.0868C354.682 60.0868 333.083 87.292 330.653 90.2957C328.147 93.395 327.592 94.2177 326.788 95.4804L326.693 95.4421C327.075 94.1029 327.324 93.2611 327.898 89.5113C328.529 85.2832 332.681 58.1736 332.681 58.1736C332.681 58.1736 331.322 58.1736 330.002 58.1736C328.166 58.1736 326.693 59.245 326.367 61.4068C326.176 62.6695 322.56 86.5267 319.843 104.434C321.278 104.434 321.489 104.434 322.216 104.434C325.411 104.434 326.099 104.185 327.496 102.502C327.496 102.502 348.828 75.6791 350.894 73.1346C353.764 69.5952 354.261 68.8491 355.218 67.2994L355.333 67.3568C354.893 69.1169 354.778 69.9778 354.07 74.3016C353.553 77.5157 349.478 104.434 349.478 104.434C349.478 104.434 350.837 104.434 352.157 104.434C353.993 104.434 355.467 103.363 355.792 101.201C355.983 99.938 359.599 76.0808 362.316 58.1736C360.881 58.1736 360.67 58.1736 359.943 58.1736C356.768 58.1545 356.079 58.4032 354.682 60.0868Z" fill="#00538E"/>
<path d="M302.434 57.2744C292.944 57.2744 282.25 64.8697 279.743 80.4237C276.988 97.6614 285.866 105.257 297.823 105.257C303.103 105.257 307.274 104.262 310.048 102.712C311.177 102.081 311.674 101.296 311.865 100.053C311.98 99.2493 312.401 96.7048 312.612 95.423C308.651 98.4267 304.098 100.129 298.626 100.129C288.429 100.129 283.627 93.3568 285.292 82.4708H312.573C314.754 82.4708 315.711 81.9543 316.074 79.7733C316.132 79.4098 316.266 78.568 316.323 78.2045C317.261 71.9484 316.935 67.5673 314.946 63.8557C312.554 59.4172 308.345 57.2744 302.434 57.2744ZM310.469 77.3818H286.286C288.506 68.5047 295.183 62.44 302.281 62.44C305.495 62.44 307.714 63.4731 309.302 65.7115C311.158 68.3517 311.464 72.4267 310.469 77.3818Z" fill="#00538E"/>
<path d="M369.796 58.1544C367.768 58.1544 366.869 58.977 366.62 60.6798C366.429 61.9999 366.219 63.2434 366.219 63.2434C366.219 63.2434 373.259 63.2434 380.682 63.2434L374.426 104.396C374.426 104.396 375.784 104.396 377.104 104.396C378.941 104.396 380.433 103.324 380.74 101.162C380.912 100.014 383.915 80.2706 386.498 63.2243C391.817 63.2243 396.37 63.2243 397.441 63.2243C399.469 63.2243 400.349 62.4399 400.617 60.6989C400.847 59.2832 401 58.1353 401 58.1353C401 58.1353 372.666 58.1544 369.796 58.1544Z" fill="#00538E"/>
<path d="M269.049 47.6512C265.509 45.5276 262.314 44.9919 253.59 44.9919C249.688 44.9919 246.225 44.9919 243.183 45.0111C241.231 45.0111 239.663 46.0442 239.28 48.4548C238.955 50.5401 230.766 104.434 230.766 104.434C235.951 104.434 241.748 104.434 248.214 104.434C257.378 104.434 261.97 103.841 266.485 101.067C270.809 98.4076 273.277 94.5621 273.889 88.6887C274.654 81.4378 271.612 75.5835 264.782 73.0964C270.675 71.0302 274.1 66.8403 274.846 60.8712C275.515 55.61 273.755 50.4636 269.049 47.6512ZM267.767 88.4017C267.346 91.7689 265.873 94.6195 262.487 96.6666C259.043 98.752 254.49 99.0963 247.679 99.0963C243.661 99.0963 241.977 99.0963 237.692 99.0963C238.228 95.5187 239.624 86.4312 241.25 75.7366C245.383 75.7366 248.425 75.7366 250.969 75.7366C256.441 75.7366 259.636 76.0618 262.64 77.5158C266.83 79.5246 268.322 83.8101 267.767 88.4017ZM268.857 60.6034C268.532 63.8366 267.04 66.8021 263.003 68.6961C259.713 70.2458 255.58 70.5519 248.31 70.5519C245.593 70.5519 244.063 70.5519 242.035 70.5519C243.164 63.0714 244.158 56.4901 245.134 50.1192C247.621 50.1192 250.242 50.1192 253.571 50.1192C260.593 50.1192 263.462 50.6549 265.796 52.3959C268.054 54.0986 269.24 56.8536 268.857 60.6034Z" fill="#00538E"/>
<path d="M352.712 44.6284L352.635 44.9345C352.023 47.2303 350.32 51.0758 345.69 51.0758C344.236 51.0758 343.088 50.6358 342.285 49.7748C341.29 48.7226 340.812 47.0581 340.927 45.0493L340.946 44.6284H336.603L336.565 44.9919C336.316 48.0913 336.985 50.5784 338.516 52.2237C339.97 53.8116 342.189 55.0361 345.116 55.0361C351.372 55.0361 355.658 51.1523 356.882 45.1067L356.978 44.6284H352.712Z" fill="#00538E"/>
</svg>
