<svg width="95" height="83" viewBox="0 0 95 83" fill="none" xmlns="http://www.w3.org/2000/svg">
<path d="M36.5199 0C21.4776 0 8.76799 11.2616 6.91787 26.2235L0 82.7731H58.4801C73.5224 82.7731 86.232 71.5114 88.0821 56.5495L95 0H36.5199Z" fill="white"/>
<path d="M47.5 16C33.416 16 22 27.4176 22 41.5C22 55.584 33.416 67 47.5 67C61.584 67 73 55.584 73 41.5C73 27.4176 61.5839 16 47.5 16ZM47.5 62.2187C36.0569 62.2187 26.7813 52.9431 26.7813 41.5C26.7813 30.0569 36.0569 20.7813 47.5 20.7813C58.9431 20.7813 68.2187 30.0569 68.2187 41.5C68.2187 52.9431 58.9431 62.2187 47.5 62.2187Z" fill="#909090"/>
<path d="M48.7479 30.3325H44.6758C43.4438 30.3325 42.7266 31.5884 42.7266 32.6784C42.7266 33.7368 43.2987 35.0243 44.6758 35.0243H45.97V50.243C45.97 51.8002 47.0855 52.6686 48.3191 52.6686C49.5527 52.6686 50.6698 51.7984 50.6698 50.243V32.5399C50.6684 31.2951 49.9815 30.3325 48.7479 30.3325Z" fill="#909090"/>
</svg>
